<svg width="50" height="50" viewBox="0 0 50 50" fill="none" xmlns="http://www.w3.org/2000/svg">
<path d="M48.3484 9.27328C49.2374 9.27328 50 8.54085 50 7.63753C50 6.77897 49.2374 6.04248 48.3484 6.04248H46.0605C46.0184 6.04248 45.9341 6.04248 45.8878 6.04248C44.3625 6.08317 43.0058 6.368 41.8682 7.0638C40.6 7.84098 39.6688 9.02507 39.159 10.7869C39.159 10.8276 39.159 10.8683 39.1169 10.909L38.6955 12.5488H33.8123C33.5047 13.7492 32.8263 14.8682 31.7983 15.7349H37.7644L33.9976 29.4352H7.28491L3.77518 15.7349H9.57277C8.54471 14.8682 7.87056 13.7451 7.55878 12.5488H2.05612H1.65164C0.720483 12.5488 -1.19209e-06 13.2853 -1.19209e-06 14.1439C-1.19209e-06 14.3107 0.0463461 14.4694 0.0842664 14.6362L4.40297 31.4372C4.57572 32.1737 5.24985 32.6619 6.00825 32.6619H33.1086C32.5145 34.786 31.9247 35.9334 31.1199 36.4665C30.1466 37.0809 28.4529 37.1175 25.613 37.0809H25.5709H6.43381C5.50265 37.0809 4.78217 37.8174 4.78217 38.6759C4.78217 39.5752 5.54479 40.271 6.43381 40.271H25.5709C29.0849 40.3117 31.2421 40.2303 32.9822 39.1276C34.7603 37.9842 35.6914 36.0189 36.6226 32.4626L42.2938 11.731C42.2938 11.6903 42.2938 11.6903 42.3359 11.6496C42.5887 10.7503 43.01 10.1359 43.6041 9.81038C44.1982 9.4401 44.9987 9.28141 45.9299 9.28141C45.972 9.28141 46.0142 9.28141 46.0563 9.28141L48.3484 9.27328ZM21.9306 17.9484L28.7815 12.5163C29.62 11.8652 29.7548 10.673 29.0806 9.86328C28.4065 9.05355 27.172 8.92334 26.3335 9.57438L22.6384 12.5448L22.6426 1.88395C22.6468 0.842285 21.7705 0 20.696 0C19.6174 0 18.7453 0.842285 18.7453 1.88395L18.741 12.5488L15.0417 9.57845C14.2033 8.92741 12.973 9.05762 12.2946 9.86735C11.6205 10.6771 11.7553 11.8652 12.5937 12.5203L19.4447 17.9484L19.4657 17.9647C20.1862 18.5059 21.1258 18.5466 21.9053 17.9647L21.9306 17.9484ZM15.6653 23.6328C15.6653 23.1283 15.147 22.7214 14.515 22.7214C13.8788 22.7214 13.3648 23.1283 13.3648 23.6328V25.5493C13.3648 26.0539 13.883 26.4608 14.515 26.4608C15.1513 26.4608 15.6653 26.0539 15.6653 25.5493V23.6328ZM22.5626 23.6328C22.5626 23.1283 22.0443 22.7214 21.4123 22.7214C20.7761 22.7214 20.2621 23.1283 20.2621 23.6328V25.5493C20.2621 26.0539 20.7803 26.4608 21.4123 26.4608C22.0485 26.4608 22.5626 26.0539 22.5626 25.5493V23.6328ZM29.4556 23.6328C29.4556 23.1283 28.9374 22.7214 28.3054 22.7214C27.6692 22.7214 27.1551 23.1283 27.1551 23.6328V25.5493C27.1551 26.0539 27.6734 26.4608 28.3054 26.4608C28.9416 26.4608 29.4556 26.0539 29.4556 25.5493V23.6328ZM11.3887 42.1468C9.143 42.1468 7.32283 43.9046 7.32283 46.0734C7.32283 48.2422 9.143 50 11.3887 50C13.6302 50 15.4546 48.2422 15.4546 46.0734C15.4546 43.9046 13.6302 42.1468 11.3887 42.1468ZM29.2113 42.1468C26.9697 42.1468 25.1454 43.9046 25.1454 46.0734C25.1454 48.2422 26.9655 50 29.2113 50C31.457 50 33.2772 48.2422 33.2772 46.0734C33.2772 43.9046 31.457 42.1468 29.2113 42.1468Z" fill="#A73EB0"/>
</svg>
