<svg width="122" height="94" viewBox="0 0 122 94" fill="none" xmlns="http://www.w3.org/2000/svg">
<path d="M90.0695 61.9103C89.6856 61.6539 89.2525 61.54 88.8096 61.6255C88.3666 61.7109 87.9926 61.9388 87.7268 62.2995L86.2306 64.3313C85.6991 64.1034 85.1478 63.9325 84.5572 63.7901C83.9666 63.6477 83.4154 63.5338 82.8248 63.4483L82.3523 60.79C82.2637 60.3343 82.0275 60.002 81.683 59.7456C81.2991 59.4893 80.8955 59.4038 80.423 59.4893L76.968 60.0874C76.525 60.1729 76.1805 60.3722 75.8852 60.7425C75.6194 61.1128 75.5013 61.502 75.5899 61.9578L76.0328 64.3882C75.4718 64.6161 74.9501 64.8724 74.4481 65.1763C73.946 65.4611 73.4539 65.8029 73.0109 66.1352L70.6682 64.5781C70.2843 64.3218 69.8807 64.2079 69.4378 64.2933C68.9948 64.3788 68.6208 64.6066 68.355 64.9769L66.3568 67.7207C66.091 68.091 65.9729 68.5087 66.0615 68.9359C66.1501 69.3916 66.3863 69.7239 66.7702 69.9803L68.8767 71.4234C68.6405 71.9361 68.4633 72.4677 68.3156 73.0374C68.168 73.607 68.0498 74.1387 67.9613 74.7084L65.2051 75.1641C64.7326 75.2495 64.3881 75.4774 64.1223 75.8097C63.8566 76.1799 63.768 76.5692 63.8566 77.0249L64.4767 80.3574C64.5653 80.7846 64.772 81.1169 65.146 81.4017C65.5299 81.658 65.9335 81.772 66.406 81.6865L68.9259 81.2593C69.1622 81.8005 69.4279 82.3036 69.7429 82.7878C70.0382 83.272 70.3926 83.7468 70.7371 84.2025L69.1228 86.4336C68.857 86.8039 68.7389 87.1931 68.8275 87.6204C68.9161 88.0476 69.1523 88.4084 69.5264 88.6647L72.4006 90.611C72.7845 90.8673 73.2176 90.9528 73.6606 90.8673C74.1035 90.7819 74.4776 90.5825 74.7729 90.2217L76.2691 88.1615C76.8006 88.3894 77.3519 88.5603 77.9425 88.7027C78.5331 88.8451 79.0843 88.959 79.6749 89.0445L80.1474 91.7028C80.236 92.1585 80.4722 92.4908 80.8167 92.7472C81.2006 93.0035 81.6042 93.089 82.0767 93.0035L85.5317 92.4054C85.9747 92.3199 86.3192 92.1206 86.6145 91.7598C86.8803 91.3895 86.9984 91.0003 86.9098 90.5445L86.4669 88.1141C87.0279 87.8862 87.5496 87.6298 88.0516 87.326C88.5536 87.0412 89.0458 86.7089 89.5183 86.3671L91.8315 87.9242C92.2154 88.1805 92.619 88.2944 93.0915 88.209C93.5639 88.1235 93.9085 87.8957 94.1742 87.5349L96.1921 84.7626C96.4579 84.3924 96.5465 83.9746 96.4579 83.5474C96.3693 83.1201 96.1626 82.7594 95.7787 82.4745L93.6427 81.0599C93.8789 80.5472 94.0561 80.0156 94.2038 79.4459C94.3514 78.8763 94.4695 78.3446 94.5581 77.775L97.3143 77.3192C97.7868 77.2338 98.1313 77.0059 98.397 76.6641C98.6628 76.2939 98.7514 75.9046 98.6628 75.4489L98.0427 72.1165C97.9541 71.6892 97.7474 71.3569 97.3733 71.0721C96.9894 70.8158 96.5859 70.7018 96.1134 70.7873L93.5935 71.2145C93.3572 70.7018 93.0915 70.1986 92.7765 69.686C92.4812 69.1733 92.1268 68.7271 91.7823 68.2998L93.3966 66.0402C93.6624 65.67 93.7805 65.2807 93.6919 64.8535C93.6033 64.4262 93.3671 64.0654 92.993 63.8091L90.1483 61.8818L90.0695 61.9103ZM116.066 52.7105L109.648 52.7674C108.713 52.7769 107.955 52.0459 107.945 51.1439C107.935 50.242 108.693 49.511 109.619 49.5015L120.18 49.397H120.19H120.23H120.24H120.279H120.289H120.328H120.338H120.377H120.387H120.427H120.436L120.476 49.4065H120.486L120.525 49.416H120.535L120.574 49.4255H120.584L120.614 49.435H120.623L120.653 49.4445H120.663L120.692 49.454H120.702L120.732 49.4635H120.742L120.771 49.473H120.781L120.81 49.4825H120.82L120.85 49.492H120.86L120.889 49.5015H120.899L120.929 49.511H120.938L120.968 49.5205H120.978L121.007 49.5394H121.017L121.047 49.5584H121.057L121.086 49.5774H121.096L121.125 49.5964H121.135L121.165 49.6154H121.175L121.204 49.6344H121.214L121.244 49.6534H121.253L121.283 49.6724H121.293L121.322 49.6913H121.332L121.362 49.7103H121.372L121.401 49.7293H121.411L121.44 49.7483H121.45L121.48 49.7673L121.49 49.7768L121.509 49.7958L121.519 49.8053L121.539 49.8243L121.559 49.8433V49.8527L121.578 49.8812V49.8907L121.598 49.9192V49.9287L121.618 49.9572V49.9667L121.637 49.9952V50.0047L121.657 50.0331V50.0426L121.677 50.0711V50.0806L121.696 50.1091V50.1186L121.716 50.1471V50.1566L121.736 50.185V50.1945L121.755 50.223V50.2325L121.775 50.261V50.2705L121.795 50.299V50.3085L121.814 50.3369V50.3464L121.824 50.3749V50.3844L121.834 50.4129V50.4224L121.844 50.4509L121.854 50.4794V50.4888V50.4983L121.864 50.5268V50.5363L121.874 50.5648V50.5743L121.883 50.6028V50.6123L121.893 50.6408V50.6502L121.903 50.6787V50.6882L121.913 50.7262V50.7357L121.923 50.7737V50.7832L121.933 50.8211V50.8306L121.942 50.8686V50.9066V50.9161V50.9541V50.9636V51.0015V51.011V51.049V51.0585L121.992 61.5875C121.992 62.4894 121.244 63.2205 120.308 63.23C119.373 63.23 118.615 62.5084 118.615 61.6065L118.586 54.9986L112.385 60.9799C111.725 61.616 110.642 61.616 109.983 60.9799C109.323 60.3437 109.323 59.2994 109.983 58.6633L116.066 52.7105ZM57.7143 3.67334L51.2964 3.7303C50.3613 3.7398 49.6033 3.00875 49.5935 2.1163C49.5836 1.21436 50.3416 0.483314 51.2767 0.47382L61.8387 0.369385H61.8485H61.8879H61.8977H61.9371H61.9469H61.9863H61.9962H62.0355H62.0454H62.0848H62.0946L62.134 0.378879H62.1438L62.1832 0.388373H62.193L62.2324 0.397867H62.2422L62.2718 0.407361H62.2816L62.3111 0.416855H62.321L62.3505 0.426349H62.3604L62.3899 0.435844H62.3997L62.4293 0.445338H62.4391L62.4686 0.454832H62.4785L62.508 0.464326H62.5179L62.5474 0.47382H62.5572L62.5868 0.483314H62.5966L62.6261 0.492808H62.636L62.6655 0.511797H62.6754L62.7049 0.530785H62.7147L62.7443 0.549773H62.7541L62.7836 0.568761H62.7935L62.823 0.58775H62.8328L62.8624 0.606738H62.8722L62.9018 0.625726H62.9116L62.9411 0.644714H62.951L62.9805 0.663703H62.9903L63.0199 0.682691H63.0297L63.0592 0.701679H63.0691L63.0986 0.720667H63.1085L63.138 0.739655L63.1478 0.74915L63.1675 0.768138L63.1774 0.777632L63.1971 0.79662V0.806114L63.2167 0.825103V0.834597L63.2364 0.863079V0.872573L63.2561 0.901056V0.91055L63.2758 0.939032V0.948526L63.2955 0.977009V0.986503L63.3152 1.01499V1.02448L63.3349 1.05296V1.06246L63.3545 1.09094V1.10043L63.3742 1.12891V1.13841L63.3939 1.16689V1.17639L63.4136 1.20487V1.21436L63.4333 1.24284V1.25234L63.453 1.28082V1.29031L63.3841 1.3188V1.32829L63.3939 1.35677V1.36627L63.4038 1.39475V1.40424L63.4136 1.43273L63.4235 1.46121V1.4707V1.4802L63.4333 1.50868V1.51817L63.4431 1.54666V1.55615L63.453 1.58463V1.59413L63.4628 1.62261V1.6321L63.4727 1.67008V1.67957L63.4825 1.71755V1.72704L63.4924 1.76502V1.77451L63.5022 1.81249V1.82199V1.85996V1.89794V1.90743V1.94541V1.9549V1.99288V2.00237V2.04035V2.04984L63.5514 12.5788C63.5514 13.4808 62.8033 14.2118 61.8682 14.2118C60.9331 14.2118 60.1751 13.4903 60.1751 12.5883L60.1456 5.98041L53.9443 11.9617C53.2848 12.5978 52.202 12.5978 51.5425 11.9617C50.883 11.3256 50.883 10.2812 51.5425 9.64514L57.7143 3.67334ZM96.9402 17.2309L85.0002 17.3449C83.6024 17.3544 82.4606 16.272 82.4507 14.9239C82.4409 13.5757 83.563 12.4744 84.9608 12.4649L103.102 12.294H103.112H103.171H103.181H103.24H103.25H103.309H103.319H103.378H103.388L103.437 12.3035H103.447L103.496 12.313H103.506L103.555 12.3225H103.565L103.614 12.332H103.624L103.673 12.3415H103.683L103.732 12.351H103.742L103.791 12.3605H103.801L103.85 12.37H103.86L103.909 12.3889H103.919L103.968 12.4079H103.978L104.027 12.4269H104.037L104.087 12.4459H104.096L104.146 12.4649H104.155L104.205 12.4839H104.214L104.264 12.5029H104.274L104.323 12.5219L104.333 12.5314L104.382 12.5503L104.392 12.5598L104.431 12.5883L104.441 12.5978L104.48 12.6263L104.49 12.6358L104.529 12.6643L104.539 12.6738L104.579 12.7022L104.589 12.7117L104.628 12.7402L104.638 12.7497L104.677 12.7782L104.687 12.7877L104.726 12.8162L104.736 12.8257L104.776 12.8542L104.785 12.8636L104.825 12.8921L104.835 12.9016L104.874 12.9301L104.884 12.9396L104.923 12.9776L104.933 12.9871L104.972 13.025L104.982 13.0345L105.022 13.0725L105.031 13.082L105.061 13.12L105.071 13.1295L105.1 13.1675L105.11 13.177L105.14 13.2149L105.15 13.2244L105.179 13.2624L105.189 13.2719L105.219 13.3099L105.228 13.3194L105.258 13.3573L105.268 13.3668L105.297 13.4048L105.307 13.4143L105.337 13.4523L105.346 13.4618L105.376 13.4998V13.5092L105.406 13.5567V13.5662L105.435 13.6137L105.455 13.6612V13.6706L105.474 13.7181V13.7276L105.494 13.7751V13.7846L105.514 13.832V13.8415L105.534 13.889V13.8985L105.553 13.946V13.9555L105.573 14.0029V14.0124L105.593 14.0599V14.0694L105.602 14.1169V14.1264L105.612 14.1738V14.1833L105.622 14.2308V14.2403L105.632 14.2973L105.642 14.3447V14.3542L105.652 14.4017V14.4112L105.661 14.4587V14.4682L105.671 14.5251V14.5346V14.5916V14.6011V14.6675V14.7245V14.734L105.75 32.4785C105.76 33.8267 104.628 34.9185 103.23 34.928C101.832 34.9375 100.7 33.8457 100.691 32.4975L100.641 20.6203L83.0807 37.5294C82.0865 38.4883 80.4821 38.4883 79.4879 37.5294C78.4937 36.5705 78.4937 35.0229 79.4879 34.064L96.9402 17.2309ZM80.0096 69.7714C80.9152 69.629 81.8306 69.629 82.7362 69.8284C83.6123 70.0278 84.4096 70.3695 85.138 70.8442C85.8369 71.3284 86.457 71.9456 86.959 72.6861C87.461 73.4172 87.776 74.2431 87.9237 75.1166C88.0713 75.9901 88.0713 76.873 87.8646 77.7465C87.6579 78.5915 87.3035 79.3605 86.8114 80.063C86.3093 80.7371 85.6695 81.3353 84.9017 81.8195C84.1438 82.3037 83.2874 82.6075 82.3818 82.7499C81.4762 82.8923 80.5608 82.8923 79.6552 82.6929C78.7792 82.4935 77.9818 82.1517 77.2534 81.677C76.5545 81.1928 75.9344 80.5757 75.4324 79.8352C74.9304 79.1041 74.6154 78.2781 74.4678 77.4047C74.3201 76.5312 74.3201 75.6483 74.5268 74.7748C74.7335 73.9298 75.0879 73.1608 75.58 72.4582C76.0821 71.7842 76.7219 71.186 77.4897 70.7018C78.2575 70.2271 79.104 69.9138 80.0096 69.7714ZM53.393 30.1335C53.2454 29.991 53.1273 29.9056 52.9796 29.8486C52.8615 29.7917 52.7138 29.7632 52.5367 29.7632C52.3595 29.7632 52.2118 29.7917 52.0937 29.8486C51.9756 29.9056 51.8279 29.991 51.7098 30.105L51.6803 30.1335L48.3631 33.333C47.7134 33.9596 46.6897 34.0355 45.9613 33.5323C45.5774 33.3045 45.2033 33.0766 44.7604 32.8583C44.2879 32.6304 43.8548 32.4025 43.4414 32.2032C42.9984 32.0038 42.5358 31.8044 42.0633 31.6335C41.6499 31.4911 41.1872 31.3202 40.6261 31.1493C39.8387 30.893 39.3367 30.1904 39.3367 29.4214V24.5319C39.3367 24.361 39.3071 24.1901 39.2481 24.0762C39.189 23.9623 39.1004 23.8199 38.9823 23.7344C38.8642 23.6205 38.7461 23.535 38.6279 23.4781C38.5098 23.4211 38.3326 23.3926 38.1554 23.3926H31.7868C31.6096 23.3926 31.4619 23.4211 31.3438 23.4496C31.2257 23.5066 31.078 23.592 30.9304 23.7344C30.8123 23.8483 30.7237 23.9623 30.6942 24.0762C30.6351 24.1901 30.6056 24.361 30.6056 24.5319V29.0321C30.6056 29.9341 29.9264 30.6746 29.0503 30.8455C28.5483 30.9594 28.0857 31.0734 27.6722 31.1873C27.1997 31.3297 26.7666 31.4721 26.2941 31.643C25.8512 31.8139 25.3886 31.9848 24.9456 32.2127C24.4731 32.412 24.0695 32.6399 23.6561 32.8393C22.8982 33.238 22.0123 33.0956 21.4315 32.526L17.7698 29.0226C17.7402 28.9942 17.7402 28.9942 17.7402 28.9657C17.6221 28.8517 17.504 28.7663 17.3859 28.7093C17.2678 28.6524 17.1496 28.6524 16.9725 28.6524C16.7953 28.6524 16.6476 28.6809 16.5295 28.7378C16.3818 28.7948 16.2637 28.8802 16.1161 29.0226L11.657 33.352C11.5094 33.4944 11.4208 33.6083 11.3617 33.7507C11.3027 33.8646 11.2731 34.0071 11.2731 34.178C11.2731 34.3488 11.3027 34.4913 11.3617 34.6052C11.4208 34.7191 11.5094 34.8615 11.6275 34.9755V35.0039L14.9447 38.2035C15.5845 38.8206 15.6731 39.8175 15.1514 40.52C14.9152 40.8903 14.6789 41.2511 14.4525 41.6783C14.2163 42.134 13.9801 42.5518 13.7733 42.9505C13.5666 43.3778 13.3599 43.824 13.1827 44.2797C13.0351 44.6784 12.8579 45.1247 12.6807 45.6658C12.415 46.4254 11.6865 46.9096 10.8892 46.9096H5.83957C5.66239 46.9096 5.48521 46.938 5.36708 46.995C5.24896 47.052 5.13084 47.1374 5.01272 47.2229C4.8946 47.3368 4.80601 47.4507 4.77648 47.5647C4.71742 47.6786 4.68789 47.8495 4.68789 48.0204V54.1821C4.68789 54.353 4.71742 54.4954 4.74695 54.6093C4.80601 54.7232 4.8946 54.8656 5.04225 55.008C5.16037 55.122 5.27849 55.2074 5.39661 55.2359C5.51474 55.2929 5.69192 55.3214 5.8691 55.3214H10.5349C11.47 55.3214 12.2378 55.967 12.415 56.8214C12.5331 57.3056 12.6512 57.7519 12.7693 58.1221C12.917 58.5778 13.0646 59.0241 13.2418 59.4798C13.419 59.907 13.5962 60.3532 13.8324 60.809C14.0686 61.2932 14.2754 61.7109 14.4821 62.1097C14.866 62.8407 14.7183 63.6952 14.1277 64.2268L10.4955 67.7017L10.4463 67.6827C10.3282 67.7966 10.2396 67.9106 10.1805 68.0245C10.1214 68.1384 10.1214 68.2524 10.1214 68.4232C10.1214 68.5941 10.151 68.7365 10.21 68.8505C10.2691 68.9929 10.3577 69.1353 10.5053 69.2492L14.9349 73.5786C15.053 73.6925 15.2006 73.7779 15.3483 73.8349C15.4959 73.8919 15.6436 73.9203 15.8208 73.9203C15.998 73.9203 16.1751 73.8919 16.3228 73.8349C16.4409 73.7779 16.5886 73.6925 16.7067 73.607L19.9944 70.379C20.644 69.7239 21.6678 69.6765 22.3962 70.1512C22.7801 70.379 23.1541 70.6069 23.5971 70.8253C24.0695 71.0531 24.5027 71.281 24.9161 71.4709C25.359 71.6702 25.8217 71.8696 26.2941 72.0405C26.7076 72.1829 27.1702 72.3538 27.7313 72.5247C28.5188 72.781 29.0208 73.4836 29.0208 74.2526V79.1421C29.0208 79.313 29.0503 79.4839 29.1094 79.5978C29.1684 79.7118 29.257 79.8542 29.3456 79.9396C29.5818 80.1675 29.8476 80.2529 30.1921 80.2529H36.5805C36.7577 80.2529 36.9053 80.2244 37.0235 80.196C37.1416 80.139 37.2892 80.0535 37.4369 79.9111C37.555 79.7972 37.6436 79.6833 37.6731 79.5693C37.7322 79.4554 37.7617 79.2845 37.7617 79.1136V74.6134C37.7617 73.7115 38.4409 72.9709 39.317 72.8C39.819 72.6861 40.2816 72.5722 40.695 72.4582C41.1675 72.3158 41.6006 72.1734 42.0731 72.0025C42.5161 71.8316 42.9787 71.6607 43.4512 71.4329C43.9532 71.205 44.3863 71.0057 44.7997 70.8063C45.5577 70.436 46.4436 70.5784 46.9948 71.1481L50.5975 74.6514L50.627 74.6799C50.7452 74.7938 50.8633 74.8792 50.9814 74.9362C51.0995 74.9932 51.2472 74.9932 51.4243 74.9932C51.6015 74.9932 51.7492 74.9647 51.8673 74.9077C51.9854 74.8508 52.1035 74.7653 52.2217 74.6514C52.2512 74.6229 52.2807 74.5944 52.3103 74.5944L56.7693 70.3505C56.8874 70.2366 56.976 70.0942 57.0351 69.9518C57.0941 69.8094 57.1237 69.667 57.1237 69.4961C57.1237 69.3252 57.0941 69.1543 57.0351 69.0119C56.976 68.898 56.8874 68.7555 56.7988 68.6416L53.4521 65.4706C52.7729 64.8535 52.7237 63.8566 53.2158 63.154C53.4521 62.7837 53.6883 62.423 53.9147 61.9957C54.151 61.54 54.3872 61.1223 54.5939 60.7235C54.8006 60.2963 55.0073 59.8501 55.1845 59.3943C55.3322 58.9956 55.5094 58.5494 55.6865 58.0082C55.9523 57.2487 56.6807 56.7645 57.478 56.7645H62.5474C62.7246 56.7645 62.9017 56.736 63.0199 56.679C63.138 56.6221 63.2856 56.5366 63.3742 56.4512C63.6105 56.2233 63.6991 55.967 63.6991 55.6347V49.473C63.6991 49.3021 63.6695 49.1597 63.64 49.0457C63.5809 48.9318 63.4924 48.7894 63.3447 48.647C63.2266 48.5331 63.1085 48.4476 62.9903 48.4191C62.8722 48.3622 62.695 48.3337 62.5179 48.3337H57.8521C56.917 48.3337 56.1196 47.6596 55.972 46.8051C55.8539 46.4064 55.7358 45.9886 55.6176 45.5614C55.47 45.1342 55.3223 44.6879 55.1156 44.2037C55.1156 44.1753 55.0861 44.1468 55.0861 44.1183C54.9089 43.6626 54.7317 43.2733 54.5546 42.8746C54.3478 42.4473 54.1411 42.0296 53.9049 41.6308C53.4915 40.8998 53.6391 40.0453 54.2297 39.4852L57.8619 35.9534C57.8619 35.9249 57.8915 35.9249 57.921 35.9249C58.0391 35.8109 58.1277 35.697 58.1868 35.5831C58.2458 35.4692 58.2458 35.3552 58.2458 35.1843C58.2458 35.0134 58.2163 34.871 58.1572 34.7571C58.0982 34.6147 58.0096 34.5007 57.8619 34.3583L53.3733 30.0575L53.393 30.1335ZM54.4463 26.4782C55.0664 26.7346 55.5881 27.0763 56.0606 27.5226L60.5492 31.8234H60.5787C61.0512 32.2791 61.3957 32.7823 61.6615 33.352C61.9273 33.9501 62.0454 34.5387 62.0454 35.1938C62.0454 35.8394 61.8977 36.466 61.6615 37.0357C61.3957 37.6053 61.0413 38.1085 60.5492 38.5358L57.9111 41.1087C57.9407 41.1941 57.9997 41.2796 58.0293 41.365C58.2655 41.8492 58.4722 42.3524 58.6691 42.8366C58.6691 42.8651 58.6986 42.8936 58.6986 42.922C58.9053 43.4062 59.0825 43.9379 59.2597 44.5076L59.3188 44.7069H62.5474C63.2167 44.7069 63.8664 44.8209 64.457 45.0772C65.0476 45.3051 65.5693 45.6753 66.0418 46.1216L66.0713 46.15C66.5438 46.6058 66.8883 47.1089 67.1246 47.6786C67.3608 48.2482 67.5085 48.8654 67.5085 49.492V55.6537C67.5085 56.9828 67.036 58.1126 66.0713 59.0431C65.5988 59.4988 65.0476 59.8595 64.457 60.0874C63.8664 60.3153 63.2266 60.4292 62.5474 60.4292H58.7971C58.7675 60.5146 58.7085 60.6286 58.6789 60.714C58.4722 61.2267 58.236 61.7299 58.0096 62.2426C57.7438 62.7837 57.5076 63.2869 57.2516 63.7426L57.1631 63.9135L59.4467 66.0877L59.5353 66.1731C60.0078 66.6289 60.3228 67.1605 60.559 67.7302C60.7953 68.2998 60.9134 68.8885 60.9134 69.5435C60.9134 70.1702 60.7953 70.7588 60.559 71.3284C60.3228 71.8981 59.9979 72.4013 59.5353 72.8855L59.4762 72.9425L54.9877 77.2433C54.5152 77.7275 53.9935 78.0598 53.4029 78.3161C52.8123 78.5725 52.1724 78.6864 51.4637 78.6864C50.7944 78.6864 50.1447 78.544 49.5246 78.3161C48.9044 78.0598 48.3827 77.6895 47.9398 77.2433L45.3313 74.6989C45.2427 74.7558 45.1541 74.7843 45.036 74.8128C44.534 75.0122 44.0123 75.24 43.4512 75.4394C42.9197 75.6388 42.3684 75.8097 41.8073 75.9806C41.7188 76.0091 41.6597 76.0375 41.5711 76.0375V79.1231C41.5711 79.7687 41.453 80.3953 41.1872 80.965C40.951 81.5346 40.5671 82.0378 40.1044 82.4935L40.0749 82.522C39.6024 82.9777 39.0807 83.31 38.4901 83.5379C37.8995 83.7657 37.2597 83.9082 36.61 83.9082H30.2217C28.8436 83.9082 27.6722 83.4524 26.7076 82.522C26.2351 82.0663 25.861 81.5346 25.6248 80.965C25.3886 80.3953 25.2704 79.7782 25.2704 79.1231V75.5059C25.1818 75.4774 25.0637 75.4204 24.9751 75.3919C24.4436 75.1926 23.9219 74.9647 23.3903 74.7368C22.8293 74.4805 22.3076 74.2526 21.8351 74.0058L21.6579 73.9203L19.4038 76.123L19.3152 76.2084C18.8427 76.6641 18.2915 76.9679 17.7009 77.1958C17.1103 77.4237 16.5 77.5376 15.8208 77.5376C15.1711 77.5376 14.5608 77.4237 13.9702 77.1958C13.3796 76.9679 12.8579 76.6546 12.3559 76.2084L12.2968 76.1515L7.80825 71.7652C7.33576 71.3095 6.99125 70.8063 6.72547 70.2366C6.4597 69.6385 6.34158 69.0499 6.34158 68.3948C6.34158 67.7397 6.48923 67.1225 6.72547 66.5529C6.99125 65.9833 7.37514 65.4801 7.83778 65.0243L10.4758 62.5084C10.4167 62.423 10.3872 62.3375 10.3577 62.2236C10.151 61.7394 9.91473 61.2362 9.70802 60.695C9.50131 60.1539 9.2946 59.6507 9.14695 59.1095L9.08789 58.8817H5.92816C5.24896 58.8817 4.60914 58.7677 4.01854 58.5114C3.42794 58.2835 2.90623 57.9133 2.43375 57.467L2.40422 57.4385C1.93174 56.9828 1.58722 56.4796 1.35098 55.91C1.12458 55.3214 0.976929 54.7042 0.976929 54.0776V47.9159C0.976929 47.2703 1.09505 46.6722 1.33129 46.0741C1.56753 45.5044 1.95143 45.0012 2.41407 44.517C2.88655 44.0613 3.43778 43.7006 4.02838 43.4727C4.61899 43.2448 5.25881 43.1309 5.938 43.1309H9.68834C9.71787 43.0455 9.77693 42.9315 9.80646 42.8461C10.0132 42.3334 10.2494 41.8302 10.4758 41.3175C10.7416 40.7764 10.9778 40.2732 11.2338 39.8175L11.3223 39.6466L9.0682 37.4439C8.59572 36.9882 8.22167 36.485 7.98543 35.8869C7.71966 35.2888 7.60154 34.6716 7.60154 34.045C7.60154 33.3994 7.71966 32.8013 7.98543 32.2032C8.2512 31.605 8.60556 31.1019 9.0682 30.6461L13.5273 26.3168V26.2883C13.9997 25.8326 14.5214 25.5003 15.112 25.244C15.7322 24.9876 16.3425 24.8737 17.0217 24.8737C17.7009 24.8737 18.3407 25.0161 18.9313 25.244C19.5219 25.5003 20.0436 25.8421 20.4865 26.3168L23.1541 28.8612C23.2427 28.8328 23.3313 28.7758 23.3903 28.7473C23.8924 28.5195 24.4141 28.3201 24.9751 28.1017C25.5067 27.9023 26.0579 27.7314 26.619 27.5605C26.7076 27.5321 26.7666 27.5036 26.8552 27.5036V24.418C26.8552 23.7629 26.9733 23.1458 27.2391 22.5761C27.4754 22.0065 27.8593 21.5033 28.3219 21.0476L28.3514 21.0191C28.8239 20.5634 29.3456 20.2311 29.9362 20.0032C30.5268 19.7754 31.1666 19.633 31.8163 19.633H38.2047C38.874 19.633 39.4941 19.7469 40.1143 19.9747C40.7344 20.2026 41.2561 20.5729 41.7286 21.0191C42.2011 21.4748 42.5751 22.0065 42.8114 22.5761C43.0476 23.1458 43.1657 23.7629 43.1657 24.418V28.0353C43.2543 28.0637 43.3724 28.1207 43.461 28.1492C43.9926 28.3486 44.5143 28.5764 45.0458 28.8043C45.6069 29.0606 46.1286 29.2885 46.6011 29.5353L46.7783 29.6208L49.0619 27.4466C49.5344 26.9909 50.0561 26.6301 50.6763 26.4023C51.2964 26.1459 51.9362 26.032 52.5859 26.032C53.2651 26.032 53.8754 26.1459 54.4955 26.4023V26.4782H54.4463ZM34.1886 37.9376C35.1532 37.9376 36.1277 38.0231 37.0628 38.2224C37.9684 38.3933 38.8839 38.6782 39.7895 39.0389C40.636 39.4092 41.4628 39.827 42.2208 40.3112C42.9787 40.7954 43.6874 41.3555 44.3273 41.9821C44.9769 42.6087 45.5577 43.2828 46.0597 44.0423C46.5912 44.7734 47.0243 45.5709 47.3787 46.3874C47.4082 46.4444 47.4082 46.5013 47.4378 46.5298C47.7921 47.3463 48.0579 48.2008 48.2252 49.0173C48.4024 49.9192 48.5205 50.8591 48.5205 51.7895C48.5205 52.72 48.432 53.6599 48.2252 54.5618C48.0481 55.4353 47.7528 56.3182 47.3787 57.1917C46.9948 58.0082 46.5617 58.8057 46.0597 59.5367C45.5282 60.2678 44.9769 60.9514 44.3273 61.597C43.6776 62.2236 42.9787 62.7837 42.1912 63.2679C41.4333 63.7806 40.6065 64.1984 39.7599 64.5401C39.7009 64.5686 39.6418 64.5686 39.6123 64.5971C38.7657 64.9389 37.8798 65.1952 37.0333 65.3566C36.0982 65.5275 35.1237 65.6415 34.159 65.6415C33.1944 65.6415 32.2199 65.556 31.2848 65.3566C30.3792 65.1857 29.4637 64.9009 28.5581 64.5401C27.7116 64.1699 26.8848 63.7521 26.1268 63.2679C25.3689 62.7837 24.6601 62.2236 24.0203 61.597C23.3707 60.9704 22.7899 60.2963 22.2879 59.5367C21.7563 58.8057 21.3232 58.0082 20.9689 57.1917C20.9393 57.1347 20.9393 57.0778 20.9098 57.0493C20.5554 56.2328 20.2897 55.3783 20.1223 54.5618C19.9452 53.6599 19.827 52.72 19.827 51.7895C19.827 50.8591 19.9156 49.9192 20.1223 49.0173C20.2995 48.1438 20.5948 47.2608 20.9689 46.3874C21.3528 45.5709 21.7859 44.7734 22.2879 44.0423C22.7899 43.3113 23.3707 42.6277 24.0203 41.9821C24.6601 41.365 25.3689 40.7954 26.1268 40.3112C26.8848 39.7985 27.7116 39.3807 28.5581 39.0389C28.6172 39.0105 28.6763 39.0105 28.7058 38.982C29.5523 38.6402 30.4382 38.3838 31.2848 38.2224C32.2199 38.0515 33.1944 37.9376 34.159 37.9376H34.1886ZM36.3344 41.7827C35.6651 41.6403 34.9268 41.5834 34.1984 41.5834C33.47 41.5834 32.7613 41.6403 32.0624 41.7827C31.393 41.9252 30.7729 42.096 30.1823 42.3239C30.1528 42.3524 30.1232 42.3524 30.0642 42.3809C29.3948 42.6657 28.7747 42.979 28.2136 43.3398C27.6525 43.71 27.1308 44.0993 26.6584 44.555C26.1859 45.0107 25.7528 45.5139 25.3984 46.0551C25.0145 46.5963 24.6995 47.1849 24.4042 47.84C24.1384 48.4381 23.9317 49.0837 23.7841 49.7673C23.6364 50.4129 23.5774 51.125 23.5774 51.8275C23.5774 52.5301 23.6364 53.2137 23.7841 53.8877C23.9317 54.5333 24.1089 55.1315 24.3452 55.7011C24.3747 55.7296 24.3747 55.7581 24.4042 55.8151C24.6995 56.4701 25.0244 57.0588 25.3984 57.5999C25.7823 58.1411 26.1859 58.6443 26.6584 59.1C27.1308 59.5557 27.6525 59.9735 28.2136 60.3153C28.7747 60.6855 29.385 60.9894 30.0642 61.2742C30.6843 61.5305 31.3537 61.7299 32.0624 61.8723C32.7317 62.0147 33.47 62.0717 34.1984 62.0717C34.9268 62.0717 35.6355 62.0147 36.3344 61.8723C37.0136 61.7299 37.6239 61.559 38.2145 61.3311C38.244 61.3027 38.2736 61.3027 38.3326 61.2742C39.002 60.9894 39.6221 60.676 40.1832 60.3153C40.7443 59.945 41.266 59.5557 41.7384 59.1C42.2109 58.6443 42.644 58.1411 42.9984 57.5999C43.3823 57.0588 43.6973 56.4701 43.9926 55.8151C44.2584 55.2169 44.4651 54.5713 44.6127 53.8877C44.7604 53.2327 44.8194 52.5301 44.8194 51.8275C44.8194 51.125 44.7604 50.4414 44.6127 49.7673C44.4651 49.1217 44.2879 48.5236 44.0516 47.9539C44.0221 47.9254 44.0221 47.897 43.9926 47.84C43.6973 47.1849 43.3724 46.5963 42.9984 46.0551C42.6145 45.5139 42.2109 45.0107 41.7384 44.555C41.266 44.0993 40.7443 43.6816 40.1832 43.3398C39.6221 42.9695 39.0118 42.6657 38.3326 42.3809C37.7125 42.115 37.0333 41.9252 36.3344 41.7827Z" fill="#A6FAFF"/>
</svg>
