<svg width="95" height="93" viewBox="0 0 95 93" fill="none" xmlns="http://www.w3.org/2000/svg">
<path fill-rule="evenodd" clip-rule="evenodd" d="M85.7852 4.72599C88.7514 7.57352 90.5852 11.5009 90.5852 15.8499C90.5852 20.1988 88.7514 24.1262 85.7852 26.9737C82.8189 29.8213 78.7277 31.5815 74.2051 31.5815C71.8783 31.5815 69.6671 31.1156 67.6639 30.2798L66.1461 33.0312C71.2389 36.3003 74.5981 41.8696 74.5981 48.186C74.5981 53.5186 72.2096 58.3188 68.4036 61.6544L69.9676 63.5774C72.4331 62.1574 75.3146 61.3364 78.3964 61.3364C82.9191 61.3364 87.0179 63.0967 89.9765 65.9442C92.9428 68.7918 94.7765 72.7191 94.7765 77.0681C94.7765 81.417 92.9428 85.3444 89.9765 88.192C87.0102 91.0395 82.9191 92.7998 78.3964 92.7998C73.8738 92.7998 69.775 91.0395 66.8087 88.192C63.8424 85.3444 62.0087 81.417 62.0087 77.0681C62.0087 72.7191 63.8424 68.7918 66.8087 65.9442C66.9012 65.8555 66.9936 65.7741 67.0861 65.6854L65.5606 63.7106C62.6713 65.4191 59.2659 66.4028 55.6216 66.4028C48.8724 66.4028 42.9398 63.0153 39.5806 57.9194L30.4506 62.468C32.0378 64.894 32.9546 67.7563 32.9546 70.8331C32.9546 75.1747 31.1209 79.1094 28.1546 81.9496C25.1884 84.7971 21.0972 86.5574 16.5669 86.5574C12.0443 86.5574 7.94543 84.7971 4.98685 81.9496C2.02828 79.0946 0.19458 75.1599 0.19458 70.8183C0.19458 66.4767 2.02828 62.542 4.99456 59.6945C7.96083 56.8469 12.052 55.0866 16.5746 55.0866C21.0972 55.0866 25.1961 56.8469 28.1623 59.6945L28.1855 59.724L37.9626 54.8499C37.1151 52.7864 36.6528 50.5306 36.6528 48.1786C36.6528 44.7689 37.6313 41.5738 39.334 38.8446L33.1164 34.2072C32.9623 34.3699 32.8005 34.5326 32.6387 34.6879C29.6724 37.5355 25.5813 39.2958 21.0587 39.2958C16.5361 39.2958 12.4372 37.5355 9.47864 34.6879C6.51237 31.8404 4.67867 27.913 4.67867 23.5641C4.67867 19.2151 6.51237 15.2877 9.47864 12.4476C12.4449 9.60008 16.5361 7.83978 21.0587 7.83978C25.5813 7.83978 29.6802 9.60008 32.6387 12.4476C35.605 15.2951 37.4387 19.2225 37.4387 23.5641C37.4387 26.4412 36.6374 29.1334 35.2352 31.4558L41.4451 36.0858C44.9199 32.336 49.9818 29.9692 55.6293 29.9692C58.2489 29.9692 60.7375 30.4795 63.0103 31.3966L64.5744 28.5713C63.8809 28.0905 63.2338 27.5506 62.6328 26.9737C59.6665 24.1262 57.8328 20.1988 57.8328 15.8499C57.8328 11.5009 59.6665 7.57352 62.6328 4.72599C65.5837 1.87846 69.6825 0.118164 74.2051 0.118164C78.7277 0.118164 82.8266 1.87846 85.7852 4.72599ZM57.9407 52.6607C58.4415 53.1414 58.7497 53.7997 58.7497 54.5319C58.7497 55.2567 58.4415 55.9224 57.9407 56.4031C57.4399 56.8839 56.7542 57.1797 55.9991 57.1797C55.2364 57.1797 54.5507 56.8839 54.0499 56.4031C53.5491 55.9224 53.2409 55.2641 53.2409 54.5319C53.2409 53.8071 53.5491 53.1414 54.0499 52.6607C54.5507 52.1799 55.2364 51.8841 55.9991 51.8841C56.7465 51.8841 57.4399 52.1799 57.9407 52.6607ZM61.3153 41.1522C62.9949 41.8992 64.6591 42.9939 66.2848 44.4657C66.5467 44.7024 66.6777 45.013 66.6931 45.3311C66.7008 45.6491 66.5853 45.9671 66.3464 46.2186L66.3156 46.2482C66.0768 46.4775 65.7609 46.5958 65.445 46.6032C65.1137 46.6106 64.7824 46.4997 64.5281 46.2704L64.505 46.2482C63.1182 44.9982 61.7082 44.0589 60.306 43.4302C58.8806 42.7942 57.4553 42.4687 56.0453 42.4465C54.6123 42.4244 53.1792 42.7128 51.7462 43.2971C50.3054 43.8888 48.8724 44.7837 47.4701 45.9745C47.447 45.9967 47.4239 46.0189 47.3931 46.0337C47.1311 46.2334 46.8152 46.3221 46.5147 46.3C46.1988 46.2852 45.883 46.152 45.6518 45.908C45.6287 45.8858 45.6056 45.8636 45.5902 45.834C45.3822 45.5899 45.2897 45.2793 45.3128 44.9834C45.3359 44.6654 45.4823 44.3622 45.7443 44.1329C47.3854 42.735 49.0804 41.6847 50.8139 40.9821C52.5475 40.2795 54.3118 39.9392 56.0916 39.9688C57.8328 39.9984 59.5818 40.383 61.3153 41.1522ZM59.2197 46.3147C60.2444 46.692 61.2537 47.2615 62.2245 48.0233L62.2553 48.0455C62.5172 48.2599 62.6713 48.5558 62.7021 48.8664C62.733 49.1697 62.6482 49.4951 62.4325 49.754L62.4017 49.791C62.1782 50.0424 61.87 50.1903 61.5464 50.2273C61.2229 50.2569 60.8761 50.1682 60.5988 49.9537C59.8437 49.362 59.081 48.9256 58.3105 48.6371C57.54 48.3487 56.7619 48.2008 55.9914 48.2082C55.221 48.2082 54.4351 48.3635 53.6646 48.6593C52.8788 48.9552 52.1006 49.4064 51.3455 49.9907C51.0682 50.2051 50.7292 50.2939 50.3979 50.2643C50.0743 50.2347 49.7584 50.0794 49.5272 49.8131C49.3038 49.5469 49.2114 49.2214 49.2422 48.9034V48.8812C49.2807 48.5706 49.4348 48.2821 49.7045 48.0676C50.6829 47.3058 51.6999 46.7289 52.7478 46.3369C53.8033 45.9449 54.882 45.7378 55.976 45.7378C57.0855 45.7304 58.1641 45.9227 59.2197 46.3147ZM14.8565 21.5967H16.0507V20.0139C16.0507 18.7048 16.6054 17.5214 17.5069 16.6634C18.4006 15.8055 19.641 15.2656 21.0048 15.2656C22.3685 15.2656 23.6012 15.7981 24.4949 16.6634C25.3887 17.5214 25.9511 18.7122 25.9511 20.0139V21.5967H26.8988C27.1068 21.5967 27.284 21.7668 27.284 21.9665V29.7843C27.284 29.984 27.1068 30.1541 26.8988 30.1541H14.8488C14.6407 30.1541 14.4635 29.984 14.4635 29.7843V21.9665C14.4635 21.7594 14.6407 21.5967 14.8565 21.5967ZM17.9691 21.5967H24.0173V19.9843C24.0173 19.1855 23.6783 18.4607 23.1312 17.9356C22.5842 17.4104 21.8214 17.085 20.997 17.085C20.1649 17.085 19.4099 17.4104 18.8629 17.9356C18.3158 18.4607 17.9768 19.1929 17.9768 19.9843V21.5967H17.9691ZM16.5746 62.7121L7.69117 71.0698L9.85617 72.1644L16.5207 65.4561L23.293 72.1644L25.458 71.0698L16.5746 62.7121ZM10.3339 73.0298L16.59 67.0241L22.823 73.0298V78.9171H18.2696H14.8488H10.3339V73.0298ZM15.9505 74.9602L15.1261 77.0311H18.0154L17.2526 74.9306C17.738 74.6939 18.0693 74.2132 18.0693 73.6437C18.0693 72.8449 17.3913 72.2014 16.5669 72.2014C15.7348 72.2014 15.0645 72.8523 15.0645 73.6437C15.0799 74.228 15.442 74.7309 15.9505 74.9602ZM83.5046 75.1081C83.3582 75.1747 83.2118 75.256 83.0654 75.3374C82.6263 75.5815 82.1948 75.8847 81.748 76.2323L80.8003 75.1969C81.1239 74.9084 81.4783 74.6421 81.8558 74.4055C82.1563 74.2206 82.4645 74.0504 82.7881 73.9099C82.9191 73.8507 83.0423 73.7916 83.1733 73.7398C82.5492 72.6822 81.6555 71.9203 80.6385 71.4544C79.6292 70.9884 78.4889 70.8109 77.3871 70.9071C76.2931 71.0106 75.2221 71.3952 74.3361 72.0535C73.3191 72.8153 72.5409 73.9469 72.2405 75.4483L72.148 75.9217L71.6626 76.003C71.1849 76.0844 70.7612 76.1953 70.3836 76.3359C70.0215 76.469 69.6979 76.6391 69.4129 76.8314C69.1894 76.9867 68.9891 77.1642 68.8273 77.3565C68.3111 77.9482 68.0723 78.6879 68.08 79.4349C68.0877 80.1967 68.3419 80.9659 68.8196 81.5946C68.9968 81.8312 69.2048 82.0457 69.436 82.2306C69.6748 82.4229 69.9445 82.5782 70.245 82.6966C70.5454 82.8149 70.869 82.8963 71.2389 82.9481H85.3922C86.0857 82.7853 86.6866 82.5709 87.2028 82.2972C87.719 82.0235 88.1351 81.6833 88.451 81.2839C88.9364 80.6626 89.1829 79.7751 89.1906 78.8728C89.206 77.926 88.9595 76.9719 88.4895 76.2767C88.3585 76.077 88.2044 75.8995 88.0503 75.7368C87.3415 75.0046 86.4478 74.6939 85.5232 74.6865C84.8606 74.6717 84.1672 74.827 83.5046 75.1081ZM68.5731 15.2434C68.1339 14.341 67.8874 13.4017 67.8951 12.4328C67.9028 11.4639 68.157 10.4654 68.7195 9.42996C68.7195 9.42257 68.7271 9.41517 68.7271 9.40777C69.4591 8.21699 70.4838 7.4182 71.6241 6.97443C72.5795 6.59722 73.6196 6.47149 74.6366 6.56024C75.6536 6.649 76.6475 6.95964 77.5181 7.44778C78.6199 8.07646 79.529 9.00838 80.0298 10.1844C80.2995 10.8204 80.4844 11.5305 80.5075 12.3071C80.5306 13.0837 80.3919 13.9194 80.0221 14.7996L77.2485 18.9415L71.4623 19.7402C71.1772 18.9267 70.7226 18.0243 70.1371 17.3735C69.5053 16.7004 68.9814 16.0791 68.5731 15.2434ZM72.0401 23.1943C71.7705 22.4842 71.7936 22.0405 71.5624 21.0716L77.6414 20.2062C77.4103 21.2417 77.6183 21.7742 77.4565 22.5878C76.9557 25.1543 72.9647 25.5684 72.0401 23.1943ZM88.1428 67.6897C85.6465 65.2934 82.2025 63.8141 78.3887 63.8141C74.575 63.8141 71.131 65.2934 68.6347 67.6897C66.1384 70.0861 64.5975 73.3996 64.5975 77.0533C64.5975 80.707 66.1384 84.0205 68.6347 86.4169C71.131 88.8132 74.5827 90.2925 78.3887 90.2925C82.1948 90.2925 85.6465 88.8132 88.1428 86.4169C90.6391 84.0205 92.18 80.707 92.18 77.0533C92.18 73.3996 90.6391 70.0861 88.1428 67.6897ZM83.9592 6.47888C81.4629 4.08252 78.0189 2.60328 74.2051 2.60328C70.3991 2.60328 66.9474 4.08252 64.4511 6.47888C61.9548 8.87525 60.4139 12.1813 60.4139 15.8425C60.4139 19.5036 61.9548 22.8097 64.4511 25.206C66.9474 27.6024 70.3913 29.0816 74.2051 29.0816C78.0112 29.0816 81.4629 27.6024 83.9592 25.206C86.4555 22.8097 87.9964 19.4962 87.9964 15.8425C87.9964 12.1887 86.4555 8.87525 83.9592 6.47888ZM30.805 14.1931C28.3087 11.7967 24.8648 10.3175 21.051 10.3175C17.2372 10.3175 13.7932 11.7967 11.2969 14.1931C8.80064 16.5895 7.25971 19.903 7.25971 23.5567C7.25971 27.2104 8.80064 30.5239 11.2969 32.9202C13.7932 35.3166 17.2372 36.7959 21.051 36.7959C24.8571 36.7959 28.3087 35.3166 30.805 32.9202C33.3013 30.5239 34.8422 27.2178 34.8422 23.5567C34.8499 19.903 33.3013 16.5895 30.805 14.1931ZM26.3286 61.4547C23.8323 59.0584 20.3807 57.5791 16.5746 57.5791C12.7685 57.5791 9.31685 59.0584 6.82055 61.4547C4.32426 63.8511 2.78333 67.1572 2.78333 70.8183C2.78333 74.472 4.32426 77.7855 6.82055 80.1819C9.31685 82.5782 12.7608 84.0575 16.5746 84.0575C20.3807 84.0575 23.8323 82.5782 26.3286 80.1819C28.8249 77.7855 30.3659 74.4794 30.3659 70.8183C30.3736 67.1572 28.8249 63.8511 26.3286 61.4547Z" fill="#A6FAFF"/>
</svg>
