<svg width="88" height="96" viewBox="0 0 88 96" fill="none" xmlns="http://www.w3.org/2000/svg">
<path fill-rule="evenodd" clip-rule="evenodd" d="M60.558 46.1153H82.2493C85.1895 46.1153 87.5979 48.5088 87.5979 51.4308V73.2209C87.5979 76.1429 85.1895 78.5364 82.2493 78.5364H60.558C51.5891 78.5364 44.2465 71.2393 44.2465 62.3259C44.2544 53.4046 51.5812 46.1153 60.558 46.1153ZM35.9657 15.7614L39.5157 19.0952L47.2023 11.3474C47.8826 10.6636 48.3049 10.1196 49.1415 10.9666L51.8471 13.7254C52.7385 14.5957 52.6916 15.1086 51.8549 15.9246L41.064 26.0426C39.2968 27.7678 39.6018 27.8688 37.8111 26.1047L31.4147 20.2065C31.0394 19.8024 31.0785 19.3983 31.4929 18.9942L34.6364 15.7536C35.0977 15.264 35.4731 15.2951 35.9657 15.7614ZM9.26208 20.5173H23.1026C23.0791 20.1288 23.0635 19.7402 23.0635 19.3439C23.0713 8.72855 31.7275 0.118164 42.4168 0.118164C53.0982 0.118164 61.7622 8.72855 61.7622 19.3439C61.7622 19.7324 61.7466 20.121 61.7309 20.5095L66.8214 20.5018C72.0214 20.494 76.2752 24.5427 76.2752 29.7105V31.2492C78.84 32.9355 80.5368 35.8264 80.5368 39.0903V42.4785H74.5315V40.2171C74.5315 37.7847 72.5297 35.8031 70.09 35.8031H14.8452V30.884C14.8452 30.2312 15.3848 29.695 16.0416 29.695H26.1131C25.4485 28.6692 24.8855 27.5735 24.4241 26.4234H10.5992C8.87893 26.4234 7.47924 27.8222 7.47924 29.524V85.9656C7.47924 87.6752 8.88675 89.0662 10.5992 89.0662H71.3568C73.077 89.0662 74.4767 87.6674 74.4767 85.9656V82.4142H80.6385V88.2813H80.6229C80.5994 92.3379 76.2439 95.6095 71.9432 95.6095H9.23863C4.53128 95.6017 0.67627 91.7706 0.67627 87.0924V29.05C0.67627 24.3562 4.5391 20.5173 9.26208 20.5173ZM60.4016 26.4156C59.9403 27.5657 59.3773 28.6614 58.7126 29.6872H71.0674C71.4115 29.6872 71.7477 29.7028 72.084 29.7416V29.5163C72.084 27.8066 70.6765 26.4156 68.964 26.4156H60.4016ZM61.3791 52.0525H80.6229V72.5993H61.3791C55.6943 72.5993 51.0417 67.9754 51.0417 62.3259C51.0417 56.6685 55.6943 52.0525 61.3791 52.0525ZM66.1099 58.9221C68.0569 58.9221 69.6365 60.4919 69.6365 62.4269C69.6365 64.3619 68.0569 65.9316 66.1099 65.9316C64.1628 65.9316 62.5833 64.3619 62.5833 62.4269C62.5833 60.4919 64.1628 58.9221 66.1099 58.9221Z" fill="#A6FAFF"/>
</svg>
