<svg width="150" height="50" viewBox="0 0 150 50" fill="none" xmlns="http://www.w3.org/2000/svg">
<path fill-rule="evenodd" clip-rule="evenodd" d="M92.7747 39.2273C84.1758 46.2541 71.6682 49.9979 60.8804 49.9979C45.7671 49.9979 32.2172 43.8351 21.8984 33.5828C21.1167 32.7765 21.7942 31.6821 22.7844 32.3157C33.8849 39.4577 47.5911 43.7199 61.7663 43.7199C71.3034 43.7199 81.8306 41.5312 91.524 36.981C92.9832 36.3475 94.1818 38.0754 92.7747 39.2273Z" fill="#FF9900"/>
<path fill-rule="evenodd" clip-rule="evenodd" d="M96.3707 34.6774C95.2762 33.1223 89.0746 33.9286 86.3125 34.3318C85.4786 34.447 85.3223 33.6406 86.104 33.0647C91.0549 29.2057 99.1327 30.3576 100.071 31.6248C101.009 32.8919 99.8102 41.877 95.172 46.1391C94.4424 46.7727 93.7649 46.4271 94.0776 45.5631C95.1199 42.6833 97.4651 36.2901 96.3707 34.6774Z" fill="#FF9900"/>
<path fill-rule="evenodd" clip-rule="evenodd" d="M86.4686 5.99407V2.25035C86.4686 1.67439 86.8334 1.32882 87.3024 1.32882H102.416C102.885 1.32882 103.302 1.73199 103.302 2.25035V5.41812C103.302 5.93648 102.885 6.62763 102.155 7.77955L94.3379 20.105C97.2563 20.0474 100.331 20.5082 102.937 22.1209C103.51 22.4665 103.666 23.0424 103.719 23.5608V27.5349C103.719 28.1108 103.197 28.7444 102.624 28.3988C97.9859 25.6918 91.7843 25.4038 86.677 28.4564C86.1559 28.7444 85.5826 28.1684 85.5826 27.5925V23.7912C85.5826 23.2152 85.5826 22.1785 86.1559 21.2569L95.2238 6.91561H87.3545C86.8855 6.91561 86.4686 6.51244 86.4686 5.99407ZM31.3832 29.2051H26.7971C26.3802 29.1476 26.0154 28.802 25.9633 28.3412V2.30795C25.9633 1.78959 26.3802 1.38641 26.8492 1.38641H31.1227C31.5917 1.38641 31.9044 1.78959 31.9565 2.25035V5.6485H32.0607C33.1551 2.36554 35.2918 0.810458 38.106 0.810458C40.9723 0.810458 42.7964 2.36554 44.0471 5.6485C45.1415 2.36554 47.6952 0.810458 50.4051 0.810458C52.3334 0.810458 54.418 1.67439 55.7208 3.69024C57.1801 5.87888 56.8674 9.04665 56.8674 11.8688V28.3412C56.8674 28.8596 56.4504 29.2627 55.9814 29.2627H51.4474C50.9784 29.2052 50.6136 28.802 50.6136 28.3412V14.5182C50.6136 13.4239 50.7178 10.6593 50.5094 9.6226C50.1446 7.89473 49.1544 7.37637 47.7994 7.37637C46.705 7.37637 45.5063 8.18272 45.0373 9.50742C44.5683 10.8321 44.6204 13.0207 44.6204 14.5182V28.3412C44.6204 28.8596 44.2035 29.2627 43.7344 29.2627H39.1483C38.6793 29.2052 38.3145 28.802 38.3145 28.3412V14.5182C38.3145 11.6384 38.7314 7.31877 35.5003 7.31877C32.2171 7.31877 32.3213 11.4657 32.3213 14.5182V28.3412C32.2692 28.802 31.9044 29.2051 31.3832 29.2051ZM116.33 0.810458C123.157 0.810458 126.858 7.26118 126.858 15.4974C126.858 23.4456 122.793 29.7811 116.33 29.7811C109.66 29.7811 106.012 23.3304 106.012 15.267C105.959 7.14599 109.66 0.810458 116.33 0.810458ZM116.33 6.16685C112.943 6.16685 112.734 11.2929 112.734 14.4607C112.734 17.6284 112.682 24.4247 116.278 24.4247C119.822 24.4247 120.03 18.9531 120.03 15.6126C120.03 13.4239 119.926 10.7745 119.353 8.70108C118.832 6.85802 117.79 6.16685 116.33 6.16685ZM135.665 29.2051H131.079C130.61 29.1476 130.245 28.7444 130.245 28.2836V2.19275C130.297 1.73199 130.662 1.32882 131.131 1.32882H135.404C135.821 1.32882 136.134 1.6744 136.238 2.07757V6.05167H136.342C137.645 2.48074 139.417 0.810458 142.596 0.810458C144.629 0.810458 146.661 1.61679 147.964 3.86302C149.163 5.93647 149.163 9.44981 149.163 11.984V28.3988C149.111 28.8596 148.746 29.2051 148.277 29.2051H143.691C143.274 29.1476 142.909 28.802 142.857 28.3988V14.2303C142.857 11.3505 143.169 7.20359 139.99 7.20359C138.896 7.20359 137.854 8.00993 137.333 9.27704C136.707 10.8897 136.603 12.4448 136.603 14.2303V28.2836C136.551 28.802 136.134 29.2051 135.665 29.2051ZM74.43 16.7645C74.43 18.7227 74.4822 20.393 73.5962 22.1785C72.8666 23.6184 71.7201 24.4823 70.4172 24.4823C68.6453 24.4823 67.603 22.9848 67.603 20.7962C67.603 16.4765 71.0947 15.6702 74.43 15.6702V16.7645ZM79.0683 29.1476C78.7556 29.4355 78.3386 29.4931 77.9738 29.2627C76.4625 27.8804 76.1498 27.1893 75.316 25.8646C72.8145 28.6868 70.9905 29.5507 67.7593 29.5507C63.9028 29.5507 60.8802 26.9013 60.8802 21.6601C60.8802 17.5132 62.9127 14.7486 65.779 13.3663C68.2805 12.1568 71.7722 11.9264 74.43 11.5809V10.9473C74.43 9.7378 74.5343 8.29791 73.8568 7.26119C73.2835 6.33966 72.2412 5.93647 71.3032 5.93647C69.5313 5.93647 67.9678 6.91561 67.603 8.98906C67.4988 9.44983 67.2382 9.91058 66.8213 9.91058L62.3915 9.39222C62.0267 9.27703 61.6098 8.98906 61.714 8.3555C62.7563 2.36555 67.603 0.580078 71.9806 0.580078C74.2216 0.580078 77.14 1.21363 78.9119 3.11429C81.1529 5.41812 80.9444 8.52829 80.9444 11.8688V19.7595C80.9444 22.1209 81.8303 23.1576 82.6642 24.4823C82.9769 24.9431 83.029 25.519 82.6642 25.807C81.674 26.6709 80.0063 28.2836 79.0683 29.1476ZM14.2375 16.7645C14.2375 18.7227 14.2896 20.393 13.4036 22.1785C12.674 23.6184 11.5275 24.4823 10.2246 24.4823C8.45271 24.4823 7.41042 22.9848 7.41042 20.7962C7.41042 16.4765 10.9021 15.6702 14.2375 15.6702V16.7645ZM18.8236 29.1476C18.5109 29.4355 18.094 29.4931 17.7292 29.2627C16.2178 27.8804 15.9051 27.1893 15.0713 25.8646C12.5698 28.6868 10.7458 29.5507 7.51465 29.5507C3.65815 29.5507 0.635498 26.9013 0.635498 21.6601C0.635498 17.5132 2.66797 14.7486 5.53429 13.3663C8.0358 12.1568 11.5275 11.9264 14.1853 11.5809V10.9473C14.1853 9.7378 14.2896 8.29791 13.6121 7.26119C13.0388 6.33966 11.9965 5.93647 11.0585 5.93647C9.28655 5.93647 7.72311 6.91561 7.3583 8.98906C7.25407 9.44983 6.9935 9.91058 6.57658 9.91058L2.14682 9.39222C1.78202 9.27703 1.36511 8.98906 1.46934 8.3555C2.51163 2.36555 7.35831 0.580078 11.736 0.580078C13.9769 0.580078 16.8953 1.21363 18.6672 3.11429C20.9082 5.41812 20.6997 8.52829 20.6997 11.8688V19.7595C20.6997 22.1209 21.5856 23.1576 22.4195 24.4823C22.7322 24.9431 22.7843 25.519 22.4195 25.807C21.4293 26.6709 19.7616 28.2836 18.8236 29.1476Z" fill="#A6FAFF"/>
</svg>
