<svg width="150" height="52" viewBox="0 0 150 52" fill="none" xmlns="http://www.w3.org/2000/svg">
<path fill-rule="evenodd" clip-rule="evenodd" d="M139.031 21.6668C138.897 21.699 138.763 22.0542 138.763 22.2477C138.736 23.5396 138.71 26.9625 138.71 29.2874C138.71 29.3521 138.79 29.4812 138.87 29.4812C139.272 29.5134 140.237 29.5456 141.068 29.5456C142.22 29.5456 142.89 29.3521 143.266 29.1586C144.23 28.577 144.686 27.3177 144.686 25.9288C144.686 22.7971 142.864 21.6021 140.157 21.6021C139.969 21.5699 139.433 21.5699 139.031 21.6668ZM145.946 36.101C145.946 32.9042 143.989 31.128 140.452 31.128C140.291 31.128 139.165 31.0958 138.897 31.1602C138.817 31.1927 138.71 31.2574 138.71 31.3544C138.71 33.6467 138.683 37.296 138.763 38.7167C138.817 39.3301 139.192 40.2021 139.648 40.4603C140.13 40.7833 141.229 40.8477 141.979 40.8477C144.096 40.8477 145.946 39.427 145.946 36.101ZM133.564 19.891C133.832 19.891 134.636 19.9876 136.699 19.9876C138.656 19.9876 140.21 19.9232 142.113 19.9232C144.445 19.9232 147.661 20.9239 147.661 25.1219C147.661 27.1886 146.455 28.8356 144.874 29.6429C144.794 29.6751 144.794 29.7395 144.874 29.7717C147.125 30.4502 149.108 32.1291 149.108 35.2934C149.108 38.3937 147.5 40.3634 145.168 41.5906C143.748 42.3331 141.979 42.5913 140.184 42.5913C138.817 42.5913 135.145 42.3978 133.108 42.4626C132.894 42.3653 133.296 41.2029 133.483 41.0094C133.966 40.9768 134.341 40.9446 134.85 40.7508C135.574 40.5251 135.654 40.2665 135.761 38.9427C135.815 37.8125 135.815 33.808 135.815 30.9666C135.815 27.0594 135.842 24.4116 135.815 23.12C135.788 22.1193 135.494 21.7959 134.904 21.6021C134.448 21.5055 133.698 21.376 133.081 21.2795C132.947 21.1178 133.403 20.0197 133.564 19.891ZM118.099 39.976C118.743 40.5891 120.003 40.8473 121.128 40.8473C122.575 40.8473 124.023 40.5251 125.416 39.0068C126.837 37.4573 127.828 35.0677 127.828 31.2574C127.828 27.6081 126.676 24.6373 124.317 22.894C122.977 21.8925 121.262 21.4733 119.279 21.4733C118.689 21.4733 118.126 21.5055 117.778 21.699C117.697 21.7637 117.51 22.0542 117.51 22.2155C117.456 22.8614 117.456 27.8342 117.456 30.7406C117.456 33.7436 117.456 37.9416 117.51 38.4259C117.51 38.9105 117.697 39.6531 118.1 39.976H118.099ZM112.016 19.8906C112.525 19.8906 114.481 19.9876 115.419 19.9876C117.108 19.9876 118.314 19.891 121.503 19.891C124.183 19.891 126.435 20.7626 128.043 22.4093C129.999 24.4438 131.018 27.2533 131.018 30.6759C131.018 35.552 129.168 38.3615 127.319 39.976C125.47 41.6228 123.058 42.5913 119.627 42.5913C117.805 42.5913 114.669 42.527 112.069 42.4944H112.043C111.909 42.204 112.257 41.0737 112.471 41.0416C113.168 40.9446 113.356 40.9121 113.704 40.7511C114.267 40.4925 114.374 40.1374 114.455 38.9427C114.535 36.7144 114.508 34.0344 114.508 30.9988C114.508 28.8356 114.535 24.6051 114.481 23.2488C114.401 22.1189 113.999 21.8281 113.195 21.6343C112.793 21.5377 112.257 21.4082 111.507 21.3117C111.399 21.0853 111.882 20.0845 112.016 19.891V19.8906Z" fill="#8E714E"/>
<path fill-rule="evenodd" clip-rule="evenodd" d="M79.5868 41.2351C78.9168 41.1382 78.4344 41.0094 77.8449 40.6865C77.7644 40.6217 77.6302 40.2991 77.6302 40.1696C77.5768 39.0394 77.5768 35.8104 77.5768 33.6473C77.5768 31.9033 77.3358 30.3858 76.7192 29.3203C75.9954 28.0928 74.9505 27.3828 73.6102 27.3828C72.431 27.3828 70.8497 28.3514 69.5364 29.7076C69.5097 29.7398 69.2953 29.9662 69.322 29.6107C69.322 29.2555 69.3758 28.5452 69.4025 28.0606C69.4295 27.6085 69.2149 27.3828 69.2149 27.3828C68.3573 27.8993 65.9453 28.5774 65.0606 28.674C64.4176 28.836 64.2567 29.5785 64.927 29.8367H64.9537C65.6769 30.095 66.1596 30.3858 66.5345 30.6765C66.8026 30.9348 66.7759 31.2899 66.7759 31.5807C66.8026 34.0021 66.8026 37.7157 66.7224 39.7501C66.6957 40.5573 66.5081 40.8478 66.0254 40.9769L66.0791 40.9447C65.7039 41.0416 65.4091 41.1382 64.9535 41.2029C64.7926 41.3968 64.7926 42.4301 64.9535 42.6561C65.2482 42.6561 66.8026 42.5592 68.0895 42.5592C69.8582 42.5592 70.7695 42.6561 71.2249 42.6561C71.4125 42.3979 71.4663 41.429 71.3591 41.2029C70.8497 41.1707 70.4744 41.1063 70.1262 40.9769C69.6438 40.8474 69.5097 40.5573 69.4826 39.8792C69.4295 38.1674 69.4295 34.5511 69.4295 32.0972C69.4295 31.419 69.5901 31.0961 69.7507 30.9022C70.3673 30.2566 71.3591 29.8046 72.2434 29.8046C73.1011 29.8046 73.6636 30.1275 74.0926 30.5474C74.6821 31.1283 74.8697 31.9681 74.9502 32.5814C75.0841 33.9699 75.0306 36.7146 75.0306 39.1042C75.0306 40.3957 74.9502 40.7186 74.5485 40.88C74.3606 40.9769 73.8782 41.1063 73.3154 41.1704C73.1278 41.3968 73.1815 42.3979 73.3154 42.6239C74.0926 42.6239 75.0039 42.527 76.344 42.527C78.0055 42.527 79.0777 42.6239 79.5067 42.6239C79.6403 42.4301 79.694 41.4937 79.5868 41.2351ZM87.0107 28.9007C85.5905 28.9007 84.7059 30.2244 84.7059 32.2907C84.7059 34.3898 85.4831 36.8115 87.6807 36.8115C88.0559 36.8115 88.753 36.6177 89.0742 36.1656C89.5836 35.5847 89.9321 34.422 89.9321 33.1948C89.9321 30.5149 88.8331 28.9004 87.0107 28.9004V28.9007ZM86.8231 43.1726C86.2873 43.1726 85.9117 43.3664 85.6707 43.5281C84.545 44.3994 84.0359 45.2392 84.0359 46.2406C84.0359 47.1766 84.3307 47.9191 84.9739 48.5651C85.7511 49.3723 86.8231 49.76 88.1898 49.76C90.9236 49.76 92.1297 47.9839 92.1297 46.2406C92.1297 45.0131 91.6203 44.2059 90.5754 43.7541C89.8249 43.3664 88.4582 43.1726 86.8231 43.1726ZM87.0107 51.5684C85.3759 51.5684 84.1965 51.1485 83.1782 50.2121C82.1864 49.3079 81.7578 47.9517 81.7578 47.0153C81.7578 46.7571 81.8115 46.0464 82.2939 45.4008C82.5884 45.0131 83.232 44.2706 84.7596 43.0113C84.813 42.9791 84.8398 42.9469 84.8398 42.8818C84.8398 42.8174 84.786 42.7527 84.7326 42.7208C83.473 42.1396 83.0978 41.2029 82.9903 40.6865V40.6217C82.9639 40.4279 82.9102 40.2344 83.1515 40.0405C83.3391 39.8792 83.6072 39.6854 83.9017 39.4597C84.3574 39.1363 84.8398 38.7812 85.1346 38.4904C85.1883 38.426 85.1883 38.3616 85.1883 38.2969C85.1883 38.2322 85.1346 38.1674 85.0808 38.1356C83.2053 37.3927 82.2672 35.7135 82.2672 33.1948C82.2672 31.5482 82.8835 30.0628 83.9821 29.1264C84.7326 28.4161 86.6087 27.5441 87.8416 27.5441H87.9221C89.1816 27.5763 89.8784 27.8993 90.8699 28.3192C91.406 28.5452 91.9154 28.6418 92.6124 28.6418C93.6574 28.6418 94.1131 28.2544 94.488 27.8027C94.515 27.8671 94.5687 28.0288 94.5955 28.4483C94.6222 28.8682 94.515 29.4816 94.2469 29.9337C94.0326 30.2888 93.5502 30.5474 93.0678 30.5474H92.9336C92.4512 30.4827 92.2366 30.4179 92.2366 30.4179L92.1297 30.4827C92.103 30.5474 92.1297 30.6118 92.1565 30.7087L92.1835 30.7735C92.2369 31.0639 92.3441 31.9355 92.3441 32.1619C92.3441 34.8097 91.4597 35.9717 90.5217 36.8437C89.6103 37.651 88.5653 38.1674 87.3859 38.2969C87.3592 38.2969 87.2523 38.2969 87.0107 38.3291C86.8768 38.3291 86.6892 38.3616 86.6622 38.3616H86.6355C86.4211 38.426 85.8853 38.749 85.8853 39.2977C85.8853 39.7819 86.1264 40.3635 87.2788 40.4604C87.5198 40.4926 87.7609 40.4926 88.0292 40.5251C89.5569 40.6539 91.4597 40.8156 92.3441 41.1707C93.5769 41.7194 94.3541 43.0435 94.3541 44.6258C94.3541 47.0157 92.9339 49.2435 90.5754 50.6316C89.423 51.2454 88.2703 51.5684 87.0107 51.5684ZM102.287 29.062C101.725 29.062 101.215 29.223 100.84 29.546C99.7949 30.321 99.2588 31.8711 99.2588 34.1312C99.2588 38.3616 101.028 41.3324 103.547 41.3324C104.297 41.3324 104.887 41.0738 105.396 40.5573C106.173 39.7819 106.576 38.2322 106.576 36.0687C106.576 31.8711 104.833 29.0617 102.287 29.0617L102.287 29.062ZM102.77 42.8821C98.2136 42.8821 96.5788 38.8459 96.5788 35.0679C96.5788 32.4201 97.4631 30.3858 99.2318 28.9326C100.492 27.9962 101.993 27.4797 103.333 27.4797C106.817 27.4797 109.256 30.4827 109.256 34.8097C109.256 37.7479 108.291 40.0727 106.441 41.4937C105.557 42.204 104.029 42.8821 102.769 42.8821H102.77ZM55.0104 29.0617C54.4476 29.0617 53.9385 29.223 53.563 29.546C52.518 30.321 51.9819 31.8711 51.9819 34.1312C51.9819 38.3616 53.7506 41.3324 56.27 41.3324C57.0205 41.3324 57.61 41.0738 58.1195 40.5573C58.8963 39.7819 59.2986 38.2322 59.2986 36.0687C59.2986 31.8711 57.5833 29.0617 55.0104 29.0617ZM55.4928 42.8821C50.9366 42.8821 49.3018 38.8459 49.3018 35.0679C49.3018 32.4201 50.1862 30.3858 51.9549 28.9326C53.2147 27.9962 54.7157 27.4797 56.0557 27.4797C59.5399 27.4797 61.9786 30.4827 61.9786 34.8097C61.9786 37.7479 61.0138 40.0727 59.1644 41.4937C58.3068 42.204 56.7791 42.8821 55.4928 42.8821ZM24.8593 42.5592C24.8056 42.4626 24.7519 42.1718 24.7789 41.8167C24.7789 41.5581 24.8326 41.3968 24.8593 41.3324C25.4222 41.2351 25.717 41.1382 26.0385 41.0416C26.5746 40.88 26.7889 40.5251 26.8156 39.7179C26.8964 37.7804 26.8964 34.099 26.8694 31.5482V31.4834C26.8694 31.193 26.8694 30.8375 26.5746 30.5793C26.1456 30.2566 25.6365 29.9662 24.9665 29.7395C24.7254 29.6432 24.5646 29.4816 24.5913 29.2881C24.5913 29.0942 24.7522 28.8682 25.1007 28.8035C25.985 28.7065 28.2896 28.0288 29.2009 27.5441C29.2546 27.6085 29.3351 27.8027 29.3351 28.0609L29.3084 28.4158C29.2814 28.7713 29.2546 29.1912 29.2546 29.6107C29.2546 29.7398 29.3621 29.8367 29.469 29.8367C29.5227 29.8367 29.5764 29.8046 29.6299 29.772C31.3451 28.1575 32.8995 27.5763 33.7034 27.5763C35.017 27.5763 36.0355 28.3192 36.8127 29.8689C36.8661 29.9662 36.9198 29.9984 37.0003 29.9984C37.0537 29.9984 37.1339 29.9662 37.1609 29.9015C38.7423 28.4483 40.3236 27.5763 41.3686 27.5763C43.861 27.5763 45.3352 29.8046 45.3352 33.5825C45.3352 34.648 45.3352 36.0365 45.3085 37.2962C45.3085 38.426 45.2818 39.4593 45.2818 40.2022C45.2818 40.3631 45.4691 40.88 45.7639 40.9769C46.1391 41.2029 46.6485 41.2998 47.3185 41.429H47.3452C47.399 41.655 47.2918 42.4944 47.1846 42.6561C47.0237 42.6561 46.7824 42.6561 46.5146 42.6239C45.8362 42.5813 45.1569 42.5597 44.4776 42.5592C42.8161 42.5592 41.9584 42.5914 41.1272 42.6561C41.0741 42.3979 41.0471 41.6228 41.1272 41.429C41.6099 41.3324 41.851 41.2351 42.146 41.1385C42.6822 40.9447 42.8161 40.6539 42.8431 39.8145C42.8431 39.2011 42.9499 33.9699 42.789 32.7106C42.6284 31.419 41.8243 29.9015 40.0553 29.9015C39.3853 29.9015 38.3403 30.2244 37.3218 31.1605C37.2683 31.2252 37.2143 31.3865 37.2143 31.4834V31.516C37.3218 32.1937 37.3218 32.9692 37.3218 34.1638V36.2625C37.3218 37.7157 37.2948 39.072 37.3218 40.1049C37.3218 40.8156 37.6703 40.9769 37.9651 41.1063C38.126 41.1382 38.2329 41.1707 38.367 41.2029C38.6081 41.2677 38.8494 41.3324 39.2247 41.429C39.2784 41.5584 39.2784 41.978 39.1979 42.3331C39.1709 42.527 39.1172 42.6236 39.0905 42.6561C38.1794 42.6239 37.2413 42.5914 35.8746 42.5914C35.4726 42.5914 34.7756 42.6239 34.1861 42.6239C33.7034 42.6239 33.248 42.6561 32.9802 42.6561C32.9532 42.5914 32.8995 42.3657 32.8995 42.0102C32.8995 41.7197 32.9532 41.4937 33.0069 41.429C33.1408 41.3968 33.248 41.3646 33.3822 41.3646C33.7034 41.2998 33.9717 41.2351 34.2395 41.1707C34.6955 41.0094 34.8561 40.7186 34.8828 40.0083C34.9632 38.3938 35.0437 33.7764 34.8561 32.6136C34.5346 30.7409 33.6502 29.8046 32.2295 29.8046C31.3988 29.8046 30.3533 30.2888 29.496 31.0642C29.3618 31.193 29.2546 31.5156 29.2546 31.8064V33.7117C29.2546 36.0365 29.2546 38.9428 29.2814 40.2022C29.3084 40.5892 29.4152 41.0416 30.0318 41.2029C30.166 41.2351 30.3803 41.2998 30.6484 41.3324L31.1305 41.429C31.1845 41.6228 31.1575 42.3979 31.0503 42.6561C30.7823 42.6561 30.4608 42.6239 30.0853 42.6239C29.5227 42.5914 28.799 42.5592 27.9951 42.5592C27.057 42.5592 26.387 42.5914 25.8509 42.6239C25.4756 42.5592 25.1808 42.5592 24.8593 42.5592Z" fill="#A6FAFF"/>
<path fill-rule="evenodd" clip-rule="evenodd" d="M10.7615 50.309L9.66286 49.8566C9.66286 49.8566 9.79704 43.108 7.78672 42.6237C6.44699 40.7506 8.00163 -36.8129 12.8256 42.3651C12.8256 42.3651 11.1638 43.3659 10.869 45.0777C10.5472 46.757 10.7615 50.309 10.7615 50.309Z" fill="white"/>
<path fill-rule="evenodd" clip-rule="evenodd" d="M10.7615 50.309L9.66286 49.8566C9.66286 49.8566 9.79704 43.108 7.78672 42.6237C6.44699 40.7506 8.00163 -36.8129 12.8256 42.3651C12.8256 42.3651 11.1638 43.3659 10.869 45.0777C10.5472 46.757 10.7615 50.309 10.7615 50.309Z" fill="#A6A385"/>
<path fill-rule="evenodd" clip-rule="evenodd" d="M11.3514 43.7861C11.3514 43.7861 20.9732 36.1652 18.7216 20.3099C16.5509 8.78241 11.4318 5.0043 10.869 3.55108C10.2527 2.51776 9.66284 0.709717 9.66284 0.709717L10.0651 32.7744C10.0651 32.807 9.23417 42.5911 11.3517 43.7865" fill="white"/>
<path fill-rule="evenodd" clip-rule="evenodd" d="M11.3514 43.7861C11.3514 43.7861 20.9732 36.1652 18.7216 20.3099C16.5509 8.78241 11.4318 5.0043 10.869 3.55108C10.2527 2.51776 9.66284 0.709717 9.66284 0.709717L10.0651 32.7744C10.0651 32.807 9.23417 42.5911 11.3517 43.7865" fill="#499D4A"/>
<path fill-rule="evenodd" clip-rule="evenodd" d="M9.10037 44.2055C9.10037 44.2055 0.0681297 36.7784 0.604255 23.7008C1.11337 10.6228 7.49199 4.19686 8.72485 3.03443C9.52903 2.00111 9.55575 1.6134 9.60948 0.580078C10.1723 2.0333 10.0652 22.3123 10.1453 24.7015C10.3864 33.9045 9.71665 42.4621 9.10037 44.2055Z" fill="white"/>
<path fill-rule="evenodd" clip-rule="evenodd" d="M9.10037 44.2055C9.10037 44.2055 0.0681297 36.7784 0.604255 23.7008C1.11337 10.6228 7.49199 4.19686 8.72485 3.03443C9.52903 2.00111 9.55575 1.6134 9.60948 0.580078C10.1723 2.0333 10.0652 22.3123 10.1453 24.7015C10.3864 33.9045 9.71665 42.4621 9.10037 44.2055Z" fill="#58AA50"/>
</svg>
