<svg width="149" height="94" viewBox="0 0 149 94" fill="none" xmlns="http://www.w3.org/2000/svg">
<path fill-rule="evenodd" clip-rule="evenodd" d="M24.8954 57.3394C23.7143 57.3394 22.7897 58.3349 22.7897 59.7875C22.7897 61.2411 23.7191 62.2309 24.8954 62.2309C26.0709 62.2309 27.0012 61.2344 27.0012 59.7875C27.0012 58.3349 26.0757 57.3394 24.8954 57.3394ZM24.8954 61.5309C24.0533 61.5309 23.4286 60.7897 23.4286 59.7875C23.4286 58.7863 24.0485 58.0394 24.8954 58.0394C25.732 58.0394 26.3614 58.7977 26.3614 59.7875C26.3614 60.7716 25.7264 61.5309 24.8954 61.5309ZM45.3854 48.7765H35.1345L36.2996 27.3091L29.6427 48.7765H20.1235L35.2273 0.253906H45.356L44.1869 22.0159L50.97 0.253906H60.49L45.3854 48.7765ZM46.622 48.7765L61.725 0.253906H71.2441L56.1412 48.7765H46.622Z" fill="#A6FAFF"/>
<path fill-rule="evenodd" clip-rule="evenodd" d="M19.0262 32.0521C5.7242 50.8733 -6.8238 75.9164 4.25977 87.4486C14.9997 98.6241 28.4239 92.0073 37.5772 87.5959C46.7304 83.1844 147.901 30.2504 147.901 30.2504C148.877 29.6623 148.695 28.9268 147.474 29.2941C146.982 29.4423 37.3335 65.2449 37.3335 65.2449C23.4195 69.9509 7.55452 59.6944 19.0262 32.0521Z" fill="#A6FAFF"/>
<path fill-rule="evenodd" clip-rule="evenodd" d="M25.2549 59.9599C25.5502 59.9427 25.7812 59.7591 25.7812 59.2666C25.7812 58.6316 25.4367 58.4719 24.8612 58.4719H24.0342V61.1046H24.5858V59.9838H24.6787L25.1811 61.1046H25.8153L25.2549 59.9599ZM24.9009 59.5334H24.5866V58.9223H24.8517C25.0144 58.9223 25.201 58.9452 25.201 59.2006C25.201 59.4741 25.093 59.5334 24.9009 59.5334ZM120.586 0.105713C119.405 0.105713 118.48 1.1022 118.48 2.55389C118.48 4.00654 119.41 4.99633 120.586 4.99633C121.762 4.99633 122.692 3.99985 122.692 2.55389C122.693 1.1022 121.768 0.105713 120.586 0.105713ZM120.586 4.29822C119.744 4.29822 119.119 3.55707 119.119 2.55485C119.119 1.55358 119.739 0.806694 120.586 0.806694C121.423 0.806694 122.053 1.56506 122.053 2.55485C122.053 3.5389 121.418 4.29822 120.586 4.29822Z" fill="#A6FAFF"/>
<path fill-rule="evenodd" clip-rule="evenodd" d="M120.945 2.72598C121.241 2.70876 121.472 2.52515 121.472 2.03265C121.472 1.39766 121.127 1.23795 120.553 1.23795H119.725V3.86973H120.276V2.74989H120.37L120.872 3.86973H121.507L120.945 2.72598ZM120.591 2.29946H120.276V1.68838H120.542C120.704 1.68838 120.891 1.71228 120.891 1.96762C120.891 2.24017 120.783 2.29946 120.591 2.29946ZM114.314 8.34145L116.872 0.253906H87.8265L77.8533 14.8109L82.4577 0.253906H72.8163L57.834 48.7763H67.3531L73.7498 28.4853L74.1879 48.7763L103.396 48.6998L106.177 39.3662H95.0716L98.7203 27.6035H107.873L110.689 18.5606H101.536L104.674 8.34145H114.314ZM83.6316 45.5411L83.0213 20.2514L97.4139 1.21213L83.6316 45.5411Z" fill="#A6FAFF"/>
</svg>
