<svg width="149" height="83" viewBox="0 0 149 83" fill="none" xmlns="http://www.w3.org/2000/svg">
<path fill-rule="evenodd" clip-rule="evenodd" d="M96.4154 5.11249V0.474609H81.016V25.9392H96.4154V21.7388H85.3011V14.8258H95.0344V10.2754H85.3011V5.11249H96.4154ZM92.1302 28.5644V38.3652H83.7033V28.5644H79.3476V53.9427H83.7033V42.5655H92.1302V53.9427H96.4154V28.5644H92.1302ZM96.4154 61.1158V56.5679H81.016V82.3801H96.4154V77.7446H85.3011V70.9179H95.0344V66.7187H85.3011V61.1158H96.4154ZM78.5476 0.474609H74.2625V10.2754H65.8376V0.474609H61.5525V25.9392H65.8376V14.5633H74.2625V25.9392H78.5476V0.474609ZM43.1047 0.474609V5.11249H49.6413V25.9392H53.9264V5.11249H60.463V0.474609H43.1047ZM29.5957 27.8643C22.8412 27.8643 19.2824 32.5022 19.2824 41.2529C19.2824 50.4412 22.8412 54.9916 29.5957 54.9916C36.3502 54.9916 39.8364 50.4412 39.8364 41.2529C39.8364 32.5022 36.3502 27.8643 29.5957 27.8643ZM23.9307 41.2529C23.9307 35.39 25.819 32.5022 29.5957 32.5022C33.663 32.5022 35.5513 35.39 35.5513 41.2529C35.5513 47.4672 33.663 50.4412 29.5957 50.4412C25.819 50.4412 23.9307 47.4672 23.9307 41.2529ZM13.109 28.5644V46.5034L4.68402 28.5644H0.108398V53.9427H4.17562V36.09L12.8185 53.9427H17.3941V28.5644H13.109ZM33.0819 67.0675V61.1158H43.9036V56.5679H28.7968V82.3801H33.0819V71.6179H42.5963V67.0675H33.0819ZM77.7497 33.1148V28.5644H60.463V33.1148H66.927V53.9427H71.2847V33.1148H77.7497ZM50.9486 44.2294C52.3286 44.2294 53.418 44.4907 53.9264 45.1908L54.7253 53.9427H59.5915V53.3301C59.0831 52.9789 58.7926 51.405 58.7926 48.4285C58.7926 44.8419 57.7031 42.9156 56.1053 41.953C58.2842 40.9029 59.3736 38.9777 59.3736 35.74C59.3736 31.1896 57.1947 28.5644 52.6191 28.5644H42.0153V53.9427H46.373V44.2294H50.9486ZM46.373 39.9403V33.1148H51.7476C53.9264 33.1148 55.0159 34.0773 55.0159 36.3525C55.0159 38.6277 53.9264 39.9403 51.5297 39.9403H46.373ZM53.9264 56.5679H48.7698L41.2164 82.3801H45.792L47.4625 76.7808H55.3064L56.6137 82.3801H61.2619L53.9264 56.5679ZM51.2392 62.4284L53.9264 72.5817H48.5519L51.2392 62.4284ZM75.0624 65.0537H79.3476C79.1287 62.7797 78.5476 60.8545 77.2393 59.1907C75.352 57.2655 73.1731 55.9529 70.1953 55.9529C67.2175 55.9529 65.0387 57.2655 63.1503 59.5419C61.5525 61.8159 60.463 65.0537 60.463 69.3427C60.463 78.4435 63.6587 82.9914 69.9048 82.9914C75.352 82.9914 78.3287 79.7536 79.3476 73.5419H75.0624C74.4814 76.5159 72.592 78.0922 70.1953 78.0922C66.6365 78.0922 65.0386 75.2057 65.0386 69.604C65.0386 63.4797 66.6365 60.5033 70.1953 60.5033C72.592 60.5033 73.973 62.1671 75.0624 65.0537ZM21.1708 82.0313H21.2434H21.1708ZM21.2434 82.0313C21.9697 82.0313 22.5507 81.68 22.9875 81.2437C23.3507 80.7187 23.6402 80.0186 23.6402 79.0572C23.6402 78.0059 23.3497 77.3059 22.9875 76.8683C22.5517 76.432 21.9707 76.1683 21.2434 76.1683H21.1708C20.2992 76.1683 19.7182 76.432 19.3551 76.8683C18.9929 77.3047 18.774 78.0059 18.774 79.0572V79.1423C18.774 80.0186 18.9919 80.7187 19.3551 81.2437C19.7182 81.68 20.3002 82.0313 21.1708 82.0313H21.2434ZM21.1708 82.7313C20.154 82.7313 19.4277 82.295 18.9193 81.68C18.4109 81.0675 18.193 80.1936 18.193 79.1423V79.0572C18.193 77.8297 18.4109 76.9558 18.9193 76.3445C19.4277 75.732 20.154 75.4682 21.1708 75.4682H21.2434C22.115 75.4682 22.8412 75.732 23.3497 76.3445C23.8581 76.9571 24.2212 77.8309 24.2212 79.0572C24.2212 80.1948 23.8581 81.0675 23.3497 81.68C23.0741 82.015 22.746 82.2805 22.3843 82.461C22.0227 82.6415 21.6348 82.7334 21.2434 82.7313H21.1708ZM21.4613 78.706H21.5339C21.8244 78.706 21.9697 78.5298 21.9697 78.0934V78.0059C21.9697 78.0059 21.8971 78.0059 21.8971 77.9184C21.8244 77.8309 21.6792 77.8309 21.4613 77.8309H20.6624V78.7072H21.4613V78.706ZM21.9697 79.3185L22.5507 80.1948C22.6234 80.3686 22.5507 80.5436 22.4781 80.6311C22.3328 80.8074 22.115 80.7187 22.0423 80.6311L21.316 79.406H20.6624V80.3674C20.6624 80.5436 20.5171 80.7187 20.3719 80.7187C20.2266 80.7187 20.0814 80.5424 20.0814 80.3674V77.4809C20.0814 77.3047 20.2266 77.1321 20.3719 77.1321H21.5339C21.8244 77.1321 22.115 77.2172 22.2602 77.3934C22.3328 77.4809 22.4055 77.4809 22.4055 77.5696C22.5507 77.7458 22.5507 77.9184 22.5507 78.0947C22.5507 78.7935 22.4055 79.1423 21.9697 79.3185ZM99.3921 0.474609C112.902 0.474609 124.594 6.42509 134.036 17.801C143.768 29.527 148.636 43.5281 148.636 59.8907V82.3801H128.88V59.1907C128.88 50.0924 126.193 42.2155 120.746 35.74C119.438 34.0773 118.059 32.7647 116.461 31.4521C112.103 27.8643 106.947 26.2892 101.572 26.2892H99.3931V0.474609H99.3921ZM126.99 82.3801H111.593V64.4411C111.593 61.4671 110.795 59.1907 109.124 57.2655C107.527 55.2553 105.348 54.2915 103.169 54.2915H99.3921V28.5644H101.571C107.235 28.5644 112.101 30.4896 116.46 34.4274C117.549 35.0399 118.639 36.3525 119.437 37.3151C124.594 43.5293 126.99 50.7049 126.99 59.1919V82.3801ZM109.705 82.3801H99.3911V56.5679H103.169C104.839 56.5679 106.437 57.2655 107.816 58.8419C108.906 60.1545 109.705 62.1671 109.705 64.4411V82.3801Z" fill="#A6FAFF"/>
</svg>
