<svg width="149" height="126" viewBox="0 0 149 126" fill="none" xmlns="http://www.w3.org/2000/svg">
<path d="M61.8623 13.6612C66.6525 7.64769 73.3213 3.91798 80.6969 3.91798C90.5014 3.91798 99.0553 10.505 103.611 20.2837C107.569 18.1527 111.951 16.9672 116.561 16.9672C134.245 16.9672 148.581 34.3911 148.581 55.8832C148.581 77.3778 134.245 94.8016 116.561 94.8016C114.443 94.8031 112.33 94.5495 110.254 94.0444C106.243 102.666 98.5985 108.491 89.8244 108.491C86.1513 108.491 82.6772 107.469 79.584 105.651C75.5174 117.176 66.0431 125.257 55.0008 125.257C43.5016 125.257 33.7013 116.49 29.9395 104.195C28.2956 104.616 26.5924 104.835 24.8447 104.835C11.1536 104.835 0.0541992 91.3247 0.0541992 74.6555C0.0541992 63.485 5.04108 53.7316 12.4505 48.5135C10.9251 44.2845 10.0766 39.6169 10.0766 34.7096C10.0766 15.5397 22.9934 0 38.9252 0C48.279 0 56.5919 5.35838 61.8623 13.6612Z" fill="#00A1E0"/>
<path d="M21.567 64.9555C21.4739 65.2487 21.6009 65.31 21.6305 65.3609C21.9097 65.6056 22.1934 65.7817 22.479 65.9778C23.9938 66.9464 25.4242 67.2292 26.9201 67.2292C29.9667 67.2292 31.8582 65.2767 31.8582 62.1335V62.0724C31.8582 59.1662 29.7235 58.1109 27.7198 57.3487L27.4596 57.2468C25.9489 56.6553 24.6456 56.1457 24.6456 54.9475V54.8839C24.6456 53.8591 25.4073 53.1044 26.5879 53.1044C27.8997 53.1044 29.4569 53.6296 30.4597 54.2974C30.4597 54.2974 30.7538 54.5269 30.8618 54.1828C30.9209 53.9991 31.4288 52.3524 31.4817 52.174C31.5388 51.9802 31.4373 51.8374 31.3337 51.7609C30.189 50.9222 28.6064 50.3486 26.9688 50.3486L26.6642 50.3511C23.8756 50.3511 21.9292 52.3803 21.9292 55.2889V55.3502C21.9292 58.4167 24.0766 59.4109 26.0888 60.1043L26.4125 60.2241C27.8787 60.7671 29.1419 61.2335 29.1419 62.4776V62.5388C29.1419 63.6758 28.321 64.522 26.9965 64.522C26.4824 64.522 24.8426 64.5093 23.0717 63.1606C22.858 63.0101 22.7332 62.9007 22.5682 62.7809C22.4815 62.7146 22.2635 62.5998 22.1684 62.9466L21.567 64.9555ZM66.1695 64.9555C66.0764 65.2487 66.2034 65.31 66.233 65.3609C66.5122 65.6056 66.7958 65.7817 67.0813 65.9778C68.5962 66.9464 70.0267 67.2292 71.5224 67.2292C74.5691 67.2292 76.4607 65.2767 76.4607 62.1335V62.0724C76.4607 59.1662 74.3258 58.1109 72.3221 57.3487L72.0619 57.2468C70.5512 56.6553 69.2478 56.1457 69.2478 54.9475V54.8839C69.2478 53.8591 70.0095 53.1044 71.1901 53.1044C72.5019 53.1044 74.0591 53.6296 75.0621 54.2974C75.0621 54.2974 75.3562 54.5269 75.4639 54.1828C75.5231 53.9991 76.031 52.3524 76.0839 52.174C76.1412 51.9802 76.0395 51.8374 75.9358 51.7609C74.7912 50.9222 73.2085 50.3486 71.571 50.3486L71.2662 50.3511C68.4777 50.3511 66.5312 52.3803 66.5312 55.2889V55.3502C66.5312 58.4167 68.6787 59.4109 70.6909 60.1043L71.0145 60.2241C72.4808 60.7671 73.7461 61.2335 73.7461 62.4776V62.5388C73.7461 63.6758 72.9231 64.522 71.5985 64.522C71.0845 64.522 69.4448 64.5093 67.6739 63.1606C67.4601 63.0101 67.3333 62.9057 67.1726 62.7809C67.1174 62.7375 66.8593 62.6177 66.7704 62.9466L66.1695 64.9555ZM96.6184 58.7988C96.6184 60.5756 96.3434 61.9749 95.8018 62.9641C95.2664 63.9431 94.4561 64.4197 93.3265 64.4197C92.1946 64.4197 91.3885 63.9456 90.8616 62.9641C90.3283 61.9776 90.0577 60.5756 90.0577 58.7988C90.0577 57.0247 90.3283 55.6276 90.8616 54.6487C91.3885 53.6801 92.1946 53.2085 93.3265 53.2085C94.4562 53.2085 95.2665 53.6801 95.804 54.6487C96.3435 55.6274 96.6184 57.0245 96.6184 58.7988ZM99.1617 55.5053C98.9119 54.488 98.5227 53.5907 98.0044 52.8439C97.486 52.0944 96.8302 51.4929 96.0514 51.0544C95.2749 50.6186 94.3568 50.3968 93.3265 50.3968C92.2939 50.3968 91.3757 50.6186 90.5991 51.0544C89.8205 51.4929 89.1647 52.0946 88.6442 52.8439C88.128 53.5934 87.7386 54.4907 87.4869 55.5053C87.2394 56.5172 87.1145 57.6235 87.1145 58.7988C87.1145 59.9741 87.2394 61.0829 87.4869 62.0923C87.7386 63.1069 88.1259 64.0043 88.6464 64.7536C89.1647 65.5031 89.8228 66.1021 90.5993 66.5277C91.3778 66.9535 92.2939 67.1701 93.3266 67.1701C94.3569 67.1701 95.2731 66.9535 96.0515 66.5277C96.8281 66.1021 97.486 65.5029 98.0045 64.7536C98.5228 64.0067 98.9121 63.1094 99.1618 62.0923C99.4116 61.0804 99.5363 59.9714 99.5363 58.7988C99.5363 57.6262 99.4113 56.5172 99.1617 55.5053ZM120.046 63.9452C119.961 63.647 119.722 63.7591 119.722 63.7591C119.352 63.93 118.958 64.088 118.539 64.167C118.114 64.2458 117.646 64.2868 117.145 64.2868C115.914 64.2868 114.936 63.8458 114.236 62.974C113.533 62.1021 113.14 60.6925 113.144 58.7857C113.148 57.0497 113.495 55.7444 114.12 54.7504C114.74 53.7614 115.683 53.254 116.942 53.254C117.991 53.254 118.791 53.3992 119.629 53.7179C119.629 53.7179 119.83 53.8223 119.925 53.5064C120.147 52.7619 120.312 52.2292 120.549 51.4109C120.617 51.1789 120.452 51.0795 120.393 51.0514C120.063 50.8959 119.284 50.6437 118.696 50.5365C118.146 50.4346 117.502 50.3811 116.787 50.3811C115.719 50.3811 114.767 50.6003 113.952 51.0388C113.14 51.4747 112.45 52.0762 111.904 52.8258C111.358 53.5753 110.944 54.4724 110.667 55.487C110.391 56.4989 110.252 57.6104 110.252 58.7857C110.252 61.3272 110.821 63.3817 111.945 64.8858C113.07 66.395 114.761 67.1622 116.965 67.1622C118.269 67.1622 119.606 66.8437 120.566 66.3873C120.566 66.3873 120.75 66.2802 120.67 66.0229L120.046 63.9452ZM124.495 57.0967C124.616 56.1102 124.842 55.2892 125.192 54.6496C125.718 53.6783 126.522 53.1456 127.652 53.1456C128.782 53.1456 129.529 53.6808 130.064 54.6496C130.42 55.2892 130.574 56.146 130.636 57.0967H124.495ZM133.058 54.9272C132.842 53.9458 132.307 52.9541 131.956 52.5004C131.401 51.7815 130.86 51.2794 130.322 50.9989C129.62 50.6369 128.778 50.3974 127.855 50.3974C126.781 50.3974 125.805 50.6141 125.014 51.0627C124.221 51.5114 123.554 52.1233 123.031 52.8855C122.509 53.645 122.115 54.55 121.866 55.5773C121.614 56.5996 121.487 57.7136 121.487 58.8885C121.487 60.0842 121.618 61.1982 121.878 62.1999C122.141 63.2095 122.56 64.0991 123.127 64.8357C123.691 65.5776 124.419 66.1589 125.291 66.5639C126.156 66.9668 127.208 67.1758 128.416 67.1731C130.902 67.1629 132.212 66.4951 132.751 66.1356C132.847 66.072 132.938 65.9599 132.823 65.6387L132.26 63.7394C132.176 63.4565 131.937 63.561 131.937 63.561C131.321 63.8363 130.445 64.3309 128.403 64.3259C127.068 64.3234 126.078 63.8492 125.458 63.1072C124.821 62.3477 124.51 61.231 124.455 59.6557L133.064 59.6659C133.064 59.6659 133.291 59.6609 133.314 59.3956C133.322 59.2839 133.61 57.2649 133.058 54.9272ZM55.5493 57.0967C55.6719 56.1102 55.8963 55.2892 56.2453 54.6496C56.7721 53.6783 57.5761 53.1456 58.7059 53.1456C59.8357 53.1456 60.5827 53.6808 61.12 54.6496C61.4732 55.2892 61.6277 56.146 61.6891 57.0967H55.5493ZM64.1096 54.9272C63.8938 53.9458 63.3607 52.9541 63.0095 52.5004C62.4551 51.7815 61.9135 51.2794 61.3762 50.9989C60.6737 50.6369 59.8317 50.3974 58.9092 50.3974C57.8365 50.3974 56.8589 50.6141 56.0677 51.0627C55.2743 51.5114 54.6078 52.1233 54.0852 52.8855C53.5626 53.645 53.1691 54.55 52.9195 55.5773C52.6698 56.5996 52.5408 57.7136 52.5408 58.8885C52.5408 60.0842 52.6719 61.1982 52.9323 62.1999C53.1947 63.2095 53.6136 64.0991 54.1805 64.8357C54.7455 65.5776 55.4733 66.1589 56.345 66.5639C57.2104 66.9668 58.2618 67.1758 59.47 67.1731C61.956 67.1629 63.2657 66.4951 63.8052 66.1356C63.9005 66.072 63.9914 65.9599 63.8772 65.6387L63.3165 63.7394C63.2297 63.4565 62.9908 63.561 62.9908 63.561C62.3751 63.8363 61.5012 64.3309 59.4553 64.3259C58.1224 64.3234 57.1322 63.8492 56.5122 63.1072C55.8753 62.3477 55.5644 61.231 55.5093 59.6557L64.1183 59.6659C64.1183 59.6659 64.3446 59.6609 64.368 59.3956C64.3761 59.2839 64.6638 57.2649 64.1096 54.9272ZM36.9408 63.8884C36.6044 63.5646 36.5578 63.483 36.4437 63.274C36.2743 62.9553 36.1876 62.5016 36.1876 61.9255C36.1876 61.0128 36.4373 60.3578 36.9557 59.9167C36.9495 59.9194 37.6963 59.1393 39.4523 59.1672C40.6857 59.1877 41.788 59.4069 41.788 59.4069V64.1229H41.79C41.79 64.1229 40.6962 64.4058 39.4649 64.495C37.7131 64.6225 36.9344 63.8859 36.9408 63.8884ZM40.3662 56.6003C40.0171 56.5697 39.5642 56.5518 39.0226 56.5518C38.2843 56.5518 37.5712 56.6639 36.9026 56.8806C36.2299 57.0972 35.6247 57.4365 35.1042 57.8849C34.5845 58.3318 34.1573 58.9171 33.856 59.5954C33.5513 60.2786 33.3968 61.0841 33.3968 61.9866C33.3968 62.9043 33.528 63.7021 33.7904 64.3549C34.0528 65.01 34.4315 65.5554 34.9138 65.9762C35.3919 66.3968 35.9823 66.7051 36.6677 66.8912C37.3427 67.0773 38.1085 67.1715 38.9465 67.1715C39.8287 67.1715 40.7089 67.085 41.5615 66.9089C42.4057 66.7355 43.4424 66.4831 43.7301 66.4043C43.9318 66.3457 44.1329 66.2837 44.3331 66.2182C44.5469 66.1546 44.53 65.8791 44.53 65.8791L44.5257 56.3938C44.5257 54.3135 44.0645 52.7712 43.1568 51.8154C42.2533 50.862 40.9225 50.38 39.2025 50.38C38.5571 50.38 37.5183 50.4873 36.8962 50.6376C36.8962 50.6376 35.0153 51.0761 34.2409 51.8051C34.2409 51.8051 34.0717 51.9327 34.1648 52.2182L34.7742 54.1914C34.8503 54.4463 35.0556 54.3596 35.0556 54.3596C35.0556 54.3596 35.1212 54.3289 35.1975 54.2754C36.8541 53.1895 38.9487 53.2226 38.9487 53.2226C39.8797 53.2226 40.5948 53.4469 41.0771 53.8929C41.5468 54.3262 41.7859 54.9813 41.7859 56.363V56.8015C41.0453 56.6741 40.3662 56.6003 40.3662 56.6003ZM109.802 51.2558C109.868 51.0211 109.73 50.909 109.673 50.8835C109.527 50.8147 108.795 50.6286 108.23 50.5853C107.149 50.5063 106.548 50.7255 106.011 51.0161C105.477 51.3066 104.885 51.7756 104.555 52.3085V51.0467C104.555 50.8708 104.451 50.7305 104.307 50.7305H102.101C101.957 50.7305 101.853 50.8706 101.853 51.0467V66.5175C101.853 66.6909 101.972 66.8337 102.115 66.8337H104.377C104.447 66.8332 104.513 66.7997 104.562 66.7404C104.61 66.6811 104.638 66.601 104.637 66.5175V58.7886C104.637 57.751 104.733 56.7162 104.923 56.0661C105.109 55.4236 105.363 54.9088 105.676 54.539C105.992 54.172 106.349 53.9146 106.741 53.7693C107.14 53.6214 107.583 53.573 107.896 53.573C108.346 53.573 108.842 53.7131 108.842 53.7131C109.006 53.736 109.1 53.6137 109.154 53.4327C109.303 52.9586 109.722 51.5386 109.802 51.2558Z" fill="white"/>
<path d="M88.5723 44.085C88.2972 43.983 88.0476 43.9141 87.7217 43.8403C87.3915 43.769 86.9981 43.7332 86.5518 43.7332C84.9944 43.7332 83.7672 44.2634 82.9062 45.3085C82.0493 46.3487 81.4673 47.9317 81.1753 50.0145L81.0695 50.7155H79.1147C79.1147 50.7155 78.8777 50.7053 78.8269 51.0164L78.5075 53.1756C78.4842 53.3796 78.5584 53.5095 78.7867 53.5095H80.6889L78.7592 66.4901C78.6089 67.5354 78.4354 68.3945 78.2429 69.0469C78.0545 69.6895 77.8706 70.1712 77.6421 70.523C77.422 70.8596 77.2146 71.1093 76.8548 71.2546C76.5587 71.3744 76.216 71.4305 75.8415 71.4305C75.6341 71.4305 75.3571 71.3895 75.1517 71.3386C74.9487 71.2901 74.8407 71.2367 74.6862 71.1575C74.6862 71.1575 74.4641 71.0558 74.3752 71.3234C74.3053 71.5452 73.7976 73.2249 73.7362 73.4316C73.677 73.638 73.7616 73.7987 73.8694 73.8471C74.1234 73.9542 74.3116 74.0255 74.6565 74.1249C75.1348 74.2601 75.5387 74.2677 75.9174 74.2677C76.7087 74.2677 77.4323 74.1326 78.0311 73.8727C78.6321 73.6101 79.1566 73.1536 79.6221 72.5369C80.1236 71.8689 80.4388 71.1704 80.7394 70.2145C81.0377 69.2712 81.2938 68.0986 81.4968 66.7323L83.437 53.5095H86.2721C86.2721 53.5095 86.511 53.5197 86.5599 53.2062L86.8814 51.0496C86.9026 50.8432 86.8307 50.7157 86.5999 50.7157H83.8473C83.8622 50.6419 83.9869 49.4741 84.3023 48.3756C84.4377 47.9092 84.6915 47.5292 84.9053 47.2691C85.117 47.0142 85.3603 46.8333 85.627 46.7287C85.8998 46.6215 86.211 46.5707 86.5516 46.5707C86.8097 46.5707 87.0656 46.6063 87.2581 46.6547C87.5247 46.7236 87.6283 46.7593 87.6983 46.7849C87.9798 46.8868 88.0177 46.7874 88.0729 46.6244L88.7309 44.4474C88.7985 44.2123 88.6314 44.1129 88.5723 44.085ZM50.1128 66.5183C50.1128 66.6917 50.0092 66.8319 49.8653 66.8319H47.5824C47.4385 66.8319 47.3369 66.6917 47.3369 66.5183V44.3807C47.3369 44.2075 47.4385 44.0672 47.5824 44.0672H49.8653C50.0092 44.0672 50.1128 44.2075 50.1128 44.3807V66.5183Z" fill="white"/>
</svg>
