<svg width="150" height="27" viewBox="0 0 150 27" fill="none" xmlns="http://www.w3.org/2000/svg">
<path fill-rule="evenodd" clip-rule="evenodd" d="M82.1362 12.2743C82.1362 12.2743 80.6912 11.1978 79.7977 10.7812C79.7977 10.7812 77.0318 9.2367 76.483 8.50187C76.483 8.50187 75.405 7.27788 76.0363 5.85623C76.0363 5.85623 76.3004 4.92596 77.4396 4.92596C77.4396 4.92596 78.9227 5.02423 78.9227 6.49279V8.56441H84.2375L84.2283 5.51338C84.2283 5.51338 84.637 0.516941 77.9679 0.296936C77.9679 0.296936 72.7226 -0.118509 71.2182 3.28542C71.2182 3.28542 70.6278 4.04483 70.6278 6.68934V8.60014C70.6278 8.60014 70.5675 10.8047 71.5018 12.2252C71.5018 12.2252 72.0302 13.1566 73.3315 14.184C73.3315 14.184 75.9742 15.8983 77.5601 16.8799C77.5601 16.8799 79.1609 17.981 78.9505 19.7333C78.9505 19.7333 78.8198 21.5324 77.2737 21.4587C77.2737 21.4587 75.8602 21.3827 75.8602 19.6182V17.5477H70.1967V20.5552C70.1967 20.5552 70.0382 26.3066 77.3154 26.3066C77.3154 26.3066 84.2691 26.4763 84.5935 20.4044V17.9553C84.5926 17.9553 84.8391 14.2343 82.1362 12.2743ZM54.9259 1.01279L53.1463 14.4498H52.7301L51.0301 1.1334H42.1522L41.7073 25.4668H46.9638L47.0268 7.13271H47.4402L50.2265 25.4634H55.7564L58.5084 7.1394H58.8745L59.0015 25.4668H64.2859L63.7167 1.01279H54.9259ZM23.6353 1.11442L20.1381 25.4388H25.7969L27.8685 6.57878H28.3338L30.4046 25.4388H36.0624L32.5661 1.11442H23.6353ZM142.374 11.9393V15.5275H143.826V19.3792C143.826 21.2621 142.49 21.2967 142.49 21.2967C140.866 21.2967 140.927 19.5077 140.927 19.5077V6.18456C140.927 4.81204 142.369 4.73834 142.369 4.73834C143.752 4.73834 143.761 6.37553 143.761 6.37553V8.40135H149.089C149.263 4.44686 148.609 3.48979 148.609 3.48979C147.287 -0.0861152 142.287 0.109319 142.287 0.109319C134.604 0.109319 135.457 7.212 135.457 7.212V20.094C135.622 26.7555 143.193 26.0788 143.321 26.0732C146.688 25.6242 147.705 24.3344 147.705 24.3344C148.641 23.4968 148.882 22.3365 148.882 22.3365C149.15 21.6608 149.217 19.5077 149.217 19.5077V11.9393H142.374ZM124.714 15.8983H124.482L119.075 1.01948H112.607V25.469H117.871L117.556 10.5925H117.792L123.393 25.469H129.665V1.01725H124.334L124.714 15.8983ZM99.7549 19.377C99.7549 19.377 99.8309 21.3838 98.2867 21.3838C98.2867 21.3838 96.6628 21.4888 96.6628 19.4273L96.6461 1.034H90.8714V19.281C90.8714 19.281 90.2791 26.1871 98.3683 26.1871C98.3683 26.1871 105.398 26.2876 105.398 19.5981V1.03512H99.7549V19.377ZM12.6265 12.2743C12.6265 12.2743 11.1833 11.1978 10.2888 10.7823C10.2888 10.7823 7.52475 9.23894 6.97602 8.50298C6.97602 8.50298 5.89803 7.27676 6.53018 5.85846C6.53018 5.85846 6.79342 4.92819 7.93166 4.92819C7.93166 4.92819 9.41565 5.02535 9.41565 6.49391V8.56552H14.7324L14.7222 5.51338C14.7222 5.51338 15.1282 0.51694 8.46186 0.298053C8.46186 0.298053 7.95947 0.258962 7.22258 0.303633C7.22258 0.303633 3.18404 0.564959 1.73992 3.23405C1.73158 3.25415 1.71953 3.26867 1.71118 3.28654C1.71118 3.28654 1.12167 4.04482 1.12167 6.69046V8.60126C1.12167 8.60126 1.06049 10.8058 1.99574 12.2263C1.99574 12.2263 2.52408 13.1577 3.82546 14.1851C3.82546 14.1851 6.46715 15.8994 8.05309 16.881C8.05309 16.881 9.65571 17.9799 9.44345 19.7344C9.44345 19.7344 9.31276 21.5335 7.7676 21.4598C7.7676 21.4598 6.35407 21.3838 6.35407 19.6193V17.5477H0.689729V20.5574C0.689729 20.5574 0.531228 26.3088 7.80839 26.3088C7.80839 26.3088 14.7602 26.4786 15.0874 20.4067V17.9598C15.0874 17.9576 15.3302 14.2343 12.6265 12.2743Z" fill="#A6FAFF"/>
</svg>
