<svg width="149" height="55" viewBox="0 0 149 55" fill="none" xmlns="http://www.w3.org/2000/svg">
<path d="M52.9357 21.8216C52.9357 16.4985 56.157 12.7816 62.0109 12.7816C65.5828 12.7816 68.5057 14.1556 70.0892 15.5017C70.3158 15.6938 70.7201 16.1601 70.4777 17.0273C70.167 17.9613 69.5972 19.3659 69.1884 20.2784C68.9505 20.81 68.3429 20.74 68.0316 20.5499C66.9037 19.8613 65.0536 18.6963 63.3541 18.4815C62.9238 18.425 62.4908 18.4025 62.0581 18.4139C60.5613 18.4542 59.3108 19.0803 58.8705 20.4562C58.7842 20.7165 58.7361 20.9929 58.7283 21.2731C58.6871 23.0861 60.7814 23.7417 63.3184 24.2669C68.0349 25.2404 71.6032 26.9066 71.6032 32.7556C71.6032 37.7227 68.3268 42.2116 61.9072 42.074C57.6752 41.9709 54.6727 40.2481 53.0639 38.5762C53.009 38.5194 52.3966 37.7679 52.7249 36.8641C53.1006 35.7006 53.7347 34.3671 54.2324 33.659C54.5091 33.2043 55.2392 33.132 55.6188 33.4155C56.945 34.4084 59.1275 36.0005 61.6433 36.1061C61.8419 36.1144 62.0387 36.1158 62.2319 36.1097C64.4949 36.0436 65.864 35.0097 65.8354 33.2682C65.8109 31.7339 64.0166 30.8376 61.1594 30.1889C56.6024 29.1546 52.9363 27.3448 52.9363 21.8216H52.9357ZM94.3355 29.4011C91.1219 29.4517 88.1756 30.51 88.0906 33.5358C88.0897 35.9369 89.7063 37.1163 91.9753 36.9618C94.1518 36.7093 95.8116 35.5719 96.543 34.0628C96.8134 33.5035 96.8546 31.4106 96.8382 30.5161C96.834 30.3257 96.5215 29.9654 96.3847 29.8961C95.7019 29.5494 95.1965 29.4424 94.3352 29.4003L94.3355 29.4011ZM83.6427 17.2087C85.1454 15.5886 88.1249 13.0668 92.8733 13.1997C99.1396 13.3567 102.45 16.8962 102.758 25.3633C102.885 28.855 102.675 38.5945 102.625 41.0211C102.617 41.3692 102.52 41.6099 102.13 41.6189C101.098 41.6688 98.7142 41.6491 97.6187 41.6318C97.066 41.5995 97.0019 41.269 96.9947 40.9231C96.9899 40.6968 96.9738 40.0257 96.9622 39.4786C96.9559 39.1883 96.7296 39.1966 96.6718 39.271C95.2019 41.162 92.7946 42.0751 90.2346 42.0751C86.3437 42.0751 82.4647 39.3173 82.4766 33.8559C82.4886 28.2627 85.7802 25.5038 89.3962 24.8532C91.7117 24.4379 94.3217 24.8072 96.2982 25.7534C96.4246 25.8145 96.6828 25.7261 96.6849 25.5102C96.693 24.7975 96.6643 23.4392 96.5508 22.7955C96.2606 21.1552 95.125 19.8354 92.7391 19.4798C92.2478 19.4069 91.7531 19.3828 91.2579 19.4302C89.3613 19.6098 87.079 21.3916 86.1338 22.0587C85.9114 22.2153 85.5631 22.1007 85.4504 21.9258C84.8988 21.0672 83.5124 18.5562 83.4033 18.1549C83.2942 17.7548 83.448 17.4178 83.6421 17.2073L83.6427 17.2087ZM104.825 27.6207C104.787 19.82 109.298 13.2392 116.623 13.1814C121.194 13.1455 124.515 15.6421 125.1 16.8197C125.219 17.0963 125.158 17.3273 125.076 17.6057C124.689 18.59 123.712 20.4917 123.015 21.5694C122.718 22.0285 122.396 21.6352 122.022 21.3352C120.984 20.5018 119.01 19.4827 117.069 19.4827C113.546 19.4834 110.922 22.3939 110.951 27.7486C110.979 32.887 113.492 35.711 117.081 35.8134C118.957 35.8701 120.775 34.5708 121.753 33.5064C122.06 33.1834 122.378 33.3451 122.729 33.6756C123.418 34.5237 124.405 35.8331 124.953 36.7344C125.312 37.2352 125.043 37.7252 124.914 37.922C123.428 40.1877 120.558 42.0945 116.76 42.1204C108.807 42.1876 104.862 35.4502 104.825 27.6218L104.825 27.6207ZM142.788 41.7687C143.161 41.7349 147.145 41.0725 148.367 40.7352C148.671 40.6518 148.779 40.3443 148.609 40.0397C147.926 38.8061 146.131 35.3029 144.251 32.1668C142.522 29.2832 140.699 26.7471 140.11 25.7714C139.966 25.5343 139.974 25.3008 140.13 25.1169C141.252 23.7949 145.942 18.2537 147.706 15.9654C148.389 15.0752 147.979 14.6923 147.399 14.4843C146.279 14.082 144.467 13.5805 143.436 13.3186C143.002 13.208 142.479 13.2468 142.099 13.7173C140.335 15.6985 134.954 22.206 133.348 24.1512C133.058 24.5022 132.89 24.4243 132.888 23.9228C132.875 20.1724 132.814 4.11544 132.703 1.47436C132.695 1.12519 132.346 0.860077 132.15 0.847504C131.14 0.78392 128.588 0.765599 127.582 0.836726C127.3 0.875164 127.031 1.22111 127.007 1.51352C126.775 5.73665 127.105 36.7377 127.243 41.0743C127.253 41.3879 127.447 41.6311 127.694 41.6487C128.697 41.7188 131.179 41.7141 132.337 41.6879C132.907 41.6879 132.977 41.2051 132.977 41.2051L133.063 32.8863C133.063 32.8863 133.122 32.5163 133.217 32.3942C133.625 31.8643 134.755 30.4051 135.237 29.8411C135.353 29.7057 135.535 29.7154 135.653 29.9069C136.226 30.8373 137.858 33.862 139.371 36.5634C140.762 39.045 142.059 41.2475 142.15 41.403C142.359 41.7622 142.604 41.7766 142.788 41.7698V41.7687H142.788ZM75.0371 41.74C75.3874 41.754 78.0454 41.7504 79.2232 41.7486C79.6197 41.7579 79.8257 41.3962 79.8389 41.0768C80.089 34.9965 79.982 6.04739 79.8239 1.47616C79.8108 1.081 79.6704 0.932642 79.4465 0.896719C78.4357 0.733628 75.5633 0.771706 74.6426 1.06197C74.4625 1.11836 74.3564 1.28325 74.3507 1.4952C74.1253 13.278 74.2774 40.4431 74.3251 40.9576C74.3725 41.4727 74.5961 41.722 75.0376 41.74H75.0371Z" fill="#A6FAFF"/>
<path d="M3.89938 29.6504C2.26131 29.6655 0.87369 28.4893 0.362055 26.6536C0.343074 26.5843 0.325379 26.5145 0.308983 26.4442C-0.248568 24.0934 0.832545 21.634 2.77026 20.8466L33.85 8.30096C34.2191 8.17233 34.601 8.10513 34.9851 8.10123C36.6667 8.08542 38.0925 9.28743 38.6166 11.1619L38.6632 11.343C39.2446 13.7915 37.8 15.9771 36.0692 16.6776C36.068 16.6787 35.7532 16.807 5.16177 29.3914C4.75515 29.5584 4.32895 29.6458 3.89938 29.6504Z" fill="#70CADB"/>
<path d="M9.07992 48.0661C7.42903 48.0805 6.03664 46.9209 5.53096 45.1115C5.51177 45.0426 5.49388 44.9733 5.4773 44.9035C4.91199 42.5246 5.99191 40.0395 7.93619 39.251L39.0172 26.5906C39.4188 26.429 39.8335 26.3464 40.2506 26.3417C41.906 26.3266 43.3604 27.5451 43.8735 29.375L43.9212 29.5654C44.2215 30.8303 44.0441 32.2517 43.4472 33.3736C43.0023 34.2077 41.5992 34.942 41.5992 34.942L10.4002 47.7949C9.97464 47.9684 9.52911 48.0602 9.07992 48.0668V48.0661Z" fill="#E01765"/>
<path d="M34.9533 48.1464C34.1477 48.1557 33.3603 47.8576 32.7039 47.2947C32.0476 46.7318 31.5559 45.933 31.2994 45.0128L20.9266 7.8898L20.8747 7.68144C20.3127 5.31411 21.3935 2.84474 23.3306 2.05803C23.7182 1.90104 24.119 1.81914 24.5224 1.81483C25.1216 1.80944 25.7016 1.97217 26.2478 2.29727C26.6977 2.56536 27.0992 2.93799 27.4292 3.39371C27.7592 3.84943 28.0112 4.37926 28.1706 4.95272L38.5425 42.0725L38.5726 42.1918C39.1552 44.6496 38.0768 47.1204 36.1397 47.9072C35.7571 48.0612 35.3567 48.1419 34.9533 48.1464Z" fill="#E8A723"/>
<path d="M19.5339 54.3991C18.7278 54.4083 17.94 54.1099 17.2833 53.5465C16.6267 52.9832 16.1349 52.1838 15.8785 51.263L5.50832 14.1415C5.34763 13.5689 5.28228 12.9636 5.316 12.3604C5.34972 11.7573 5.48184 11.1681 5.70481 10.6265C5.92778 10.0849 6.23722 9.60168 6.6154 9.20439C6.99359 8.80711 7.4331 8.5036 7.90877 8.31123C8.29197 8.15689 8.69289 8.07592 9.09692 8.07127C9.90267 8.06168 10.6902 8.35972 11.3467 8.92264C12.0033 9.48556 12.495 10.2845 12.7514 11.2048L23.1219 48.3277C23.2826 48.9007 23.348 49.5062 23.3141 50.1097C23.2803 50.7131 23.148 51.3026 22.9247 51.8443C22.7015 52.386 22.3917 52.8693 22.0132 53.2666C21.6346 53.6638 21.1948 53.9671 20.7187 54.1591C20.3363 54.3135 19.936 54.3944 19.5327 54.3987H19.5339V54.3991Z" fill="#3EB890"/>
<path d="M29.839 39.7869L37.0716 36.8073L34.7073 28.3469L27.4663 31.2953L29.839 39.7869Z" fill="#CC2027"/>
<path d="M14.4443 46.128L21.6764 43.1489L19.2941 34.6243L12.0549 37.5736L14.4443 46.128Z" fill="#361238"/>
<path d="M24.6899 21.3594L31.923 18.3838L29.5864 10.0225L22.3398 12.9478L24.6899 21.3594Z" fill="#65863A"/>
<path d="M9.29346 27.6926L16.5266 24.7171L14.1614 16.2493L6.91479 19.1741L9.29346 27.6926Z" fill="#1A937D"/>
</svg>
