<svg width="150" height="55" viewBox="0 0 150 55" fill="none" xmlns="http://www.w3.org/2000/svg">
<path d="M22.8006 0.791016C10.4996 0.791016 0.5271 12.8069 0.5271 27.6289C0.5271 42.4526 10.4996 54.4678 22.8006 54.4678C35.1022 54.4678 45.0741 42.4526 45.0741 27.6289C45.0741 12.8078 35.103 0.791016 22.8006 0.791016ZM33.0151 39.499C32.6151 40.2896 31.7602 40.5374 31.1062 40.0557C25.8758 36.2038 19.2924 35.3337 11.5392 37.4678C10.7921 37.6742 10.0474 37.1098 9.87717 36.2099C9.70614 35.3096 10.1724 34.4123 10.9214 34.2072C19.406 31.8699 26.6838 32.8759 32.5547 37.1986C33.209 37.6825 33.4167 38.7106 33.0151 39.499ZM35.7413 32.1923C35.2376 33.1772 34.1689 33.4861 33.3526 32.8813C27.3669 28.4478 18.2394 27.1636 11.1578 29.7538C10.2394 30.088 9.26941 29.4644 8.99067 28.3597C8.71405 27.253 9.23192 26.0865 10.1487 25.7499C18.2378 22.7925 28.2938 24.2251 35.1692 29.316C35.9858 29.9217 36.244 31.2097 35.7413 32.1923ZM35.9754 24.5827C28.7957 19.4451 16.9529 18.9727 10.099 21.4792C8.99837 21.8814 7.83447 21.1327 7.50093 19.8066C7.1674 18.4798 7.78819 17.0783 8.88958 16.6751C16.7574 13.7972 29.8367 14.3532 38.1016 20.2652C39.0915 20.9731 39.4163 22.5137 38.8295 23.7049C38.2444 24.8978 36.9621 25.291 35.9754 24.5827ZM61.126 25.5673C57.2802 24.4622 56.5956 23.6867 56.5956 22.057C56.5956 20.5174 57.7986 19.4813 59.5875 19.4813C61.3217 19.4813 63.0412 20.2681 64.844 21.8878C64.8985 21.9368 64.9669 21.9564 65.0342 21.9436C65.1015 21.9314 65.161 21.8868 65.2004 21.8199L67.0782 18.6304C67.1553 18.499 67.1343 18.3179 67.0303 18.2176C64.8847 16.1431 62.4686 15.1346 59.6445 15.1346C55.4921 15.1346 52.5916 18.1372 52.5916 22.4333C52.5916 27.0402 55.0936 28.6715 59.4173 29.9307C63.0974 30.952 63.7184 31.8077 63.7184 33.3374C63.7184 35.0324 62.4625 36.0862 60.4413 36.0862C58.1965 36.0862 56.3656 35.1751 54.3173 33.0377C54.2665 32.9849 54.1968 32.9608 54.1324 32.9653C54.0646 32.972 54.0026 33.0099 53.9596 33.0724L51.8541 36.0916C51.7658 36.2169 51.777 36.4041 51.8791 36.5124C54.2622 39.076 57.1933 40.43 60.3563 40.43C64.8307 40.43 67.7221 37.4842 67.7221 32.9246C67.7301 29.0756 65.8178 26.9444 61.134 25.5714L61.126 25.5673ZM77.8451 20.9972C75.9056 20.9972 74.3148 21.9176 73.003 23.8036V21.6808C73.003 21.5131 72.8903 21.3766 72.7514 21.3766H69.3079C69.1688 21.3766 69.0562 21.5131 69.0562 21.6808V45.269C69.0562 45.4366 69.1687 45.5731 69.3079 45.5731H72.7514C72.8903 45.5731 73.003 45.4366 73.003 45.269V37.8232C74.3151 39.5974 75.9062 40.4643 77.8451 40.4643C81.4488 40.4643 85.0969 37.1217 85.0969 30.7319C85.1022 24.3405 81.4531 20.9969 77.8491 20.9969L77.8451 20.9972ZM81.0927 30.7319C81.0927 33.9857 79.4293 36.2564 77.0474 36.2564C74.6928 36.2564 72.9166 33.8825 72.9166 30.7319C72.9166 27.5815 74.6928 25.2074 77.0474 25.2074C79.3907 25.207 81.0927 27.5302 81.0927 30.7319ZM94.4473 20.9972C89.8063 20.9972 86.1704 25.3032 86.1704 30.8014C86.1704 36.2397 89.7813 40.5005 94.3903 40.5005C99.0478 40.5005 102.695 36.2089 102.695 30.7318C102.695 25.2737 99.0725 20.9972 94.4473 20.9972ZM94.4473 36.2887C91.9787 36.2887 90.1177 33.8989 90.1177 30.7303C90.1177 27.5482 91.9144 25.2391 94.3903 25.2391C96.8748 25.2391 98.7483 27.6289 98.7483 30.7998C98.7483 33.9812 96.9395 36.2887 94.4473 36.2887ZM112.605 21.3766H108.816V16.7085C108.816 16.5412 108.704 16.4047 108.565 16.4047H105.122C104.982 16.4047 104.869 16.5412 104.869 16.7085V21.3766H103.214C103.075 21.3766 102.963 21.5131 102.963 21.6808V25.2468C102.963 25.4141 103.075 25.5509 103.214 25.5509H104.869V34.778C104.869 38.5068 106.409 40.3973 109.447 40.3973C110.682 40.3973 111.707 40.09 112.673 39.4301C112.751 39.3772 112.8 39.2753 112.8 39.167V35.7712C112.8 35.6663 112.755 35.5673 112.68 35.5125C112.605 35.4558 112.512 35.4529 112.435 35.4987C111.772 35.901 111.13 36.0865 110.414 36.0865C109.309 36.0865 108.816 35.4821 108.816 34.1274V25.5525H112.605C112.744 25.5525 112.856 25.416 112.856 25.2484V21.6827C112.862 21.5151 112.75 21.3786 112.609 21.3786L112.605 21.3766ZM125.808 21.3949V20.8215C125.808 19.1348 126.345 18.3827 127.549 18.3827C128.267 18.3827 128.843 18.5544 129.489 18.814C129.569 18.8442 129.652 18.8291 129.716 18.7717C129.783 18.7144 129.82 18.6224 129.82 18.525V15.0285C129.82 14.8948 129.749 14.7766 129.642 14.7371C128.96 14.4926 128.087 14.2417 126.78 14.2417C123.599 14.2417 121.918 16.3998 121.918 20.4805V21.3587H120.264C120.125 21.3587 120.011 21.4952 120.011 21.6625V25.2468C120.011 25.4141 120.125 25.5509 120.264 25.5509H121.918V39.7833C121.918 39.9509 122.03 40.0874 122.169 40.0874H125.613C125.752 40.0874 125.865 39.9509 125.865 39.7833V25.5519H129.08L134.005 39.7807C133.446 41.2758 132.897 41.5732 132.146 41.5732C131.539 41.5732 130.9 41.3549 130.247 40.9242C130.186 40.8835 130.113 40.8768 130.047 40.9014C129.981 40.9293 129.926 40.9883 129.898 41.0652L128.731 44.1505C128.675 44.2963 128.723 44.4675 128.839 44.5431C130.058 45.3382 131.157 45.6776 132.517 45.6776C135.059 45.6776 136.465 44.2505 137.704 40.4111L143.678 21.8102C143.708 21.7166 143.699 21.6109 143.651 21.5279C143.604 21.4455 143.528 21.3959 143.444 21.3959H139.859C139.752 21.3959 139.656 21.4782 139.621 21.5997L135.948 34.2389L131.926 21.5913C131.889 21.4737 131.795 21.3958 131.691 21.3958L125.808 21.3949ZM118.154 21.3766H114.71C114.571 21.3766 114.458 21.5131 114.458 21.6808V39.7833C114.458 39.9509 114.571 40.0874 114.71 40.0874H118.154C118.292 40.0874 118.406 39.9509 118.406 39.7833V21.682C118.406 21.642 118.4 21.6024 118.387 21.5655C118.374 21.5285 118.356 21.4949 118.332 21.4667C118.309 21.4384 118.281 21.416 118.25 21.4008C118.219 21.3855 118.187 21.3765 118.154 21.3766ZM116.451 13.1341C115.087 13.1341 113.98 14.4648 113.98 16.1085C113.98 17.7532 115.087 19.0855 116.451 19.0855C117.815 19.0855 118.921 17.7532 118.921 16.1085C118.921 14.4651 117.813 13.1341 116.451 13.1341ZM146.618 27.1969C145.255 27.1969 144.195 25.8781 144.195 24.2767C144.195 22.6752 145.269 21.3414 146.631 21.3414C147.994 21.3414 149.054 22.6598 149.054 24.26C149.054 25.8615 147.98 27.1969 146.618 27.1969ZM146.631 21.6317C145.39 21.6317 144.451 22.8207 144.451 24.2767C144.451 25.732 145.383 26.905 146.619 26.905C147.86 26.905 148.8 25.7169 148.8 24.26C148.8 22.8047 147.866 21.6317 146.631 21.6317ZM147.169 24.5603L147.854 25.7166H147.276L146.659 24.6558H146.129V25.7166H145.645V22.6515H146.779C147.37 22.6515 147.759 23.0159 147.759 23.6293C147.761 24.1318 147.519 24.4389 147.171 24.5603L147.169 24.5603ZM146.759 23.1774H146.128V24.1469H146.759C147.074 24.1469 147.262 23.9613 147.262 23.6617C147.262 23.3463 147.073 23.1774 146.759 23.1774Z" fill="#2EBD59"/>
</svg>
